<svg id="Layer_5" enable-background="new 0 0 64 64" height="512" viewBox="0 0 64 64" width="512" xmlns="http://www.w3.org/2000/svg"><g><g><g><path d="m23 2h12c-3.97 9.93-9.58 19.13-16.58 27.21l-2.42 2.79h-12v-1l2.01-2.16c3.63-3.92 6.89-8.15 9.73-12.64s5.28-9.24 7.26-14.2z" fill="#a0d468"/></g><g><path d="m53.99 28.84c-7.26-7.83-13.02-16.93-16.99-26.84h-1-1c-3.97 9.93-9.58 19.13-16.58 27.21l-2.42 2.79h40v-1z" fill="#b4dd7f"/></g><g><path d="m47.78 32c.78 1.42 1.61 2.82 2.48 4.2 2.84 4.49 6.1 8.72 9.73 12.64l2.01 2.16v1h-12l-2.42-2.79c-7-8.08-12.61-17.28-16.58-27.21h5 7c1.37 3.44 2.97 6.78 4.78 10z" fill="#fcd770"/></g><g><path d="m31 22c3.97 9.93 9.58 19.13 16.58 27.21l2.42 2.79h-8l-5.75-7.19c-4.05-5.06-6.25-11.34-6.25-17.81 0 6.47-2.2 12.75-6.25 17.81l-2.24 2.79c-.29-1.18-.51-2.61-.51-4.6 0 0-1.32 0-2.44 1.52l-.01-.01c-.3-.78-.71-1.45-1.11-2.12 2.51-3.3 4.79-6.77 6.8-10.39 1.8-3.23 3.39-6.56 4.76-10z" fill="#ffeaa7"/></g><g><path d="m36.25 44.81 5.75 7.19h-19.18c-.3-1.51-.88-2.68-1.31-4.39 0 0 0 0 0-.01l2.24-2.79c4.05-5.06 6.25-11.34 6.25-17.81 0 6.47 2.2 12.75 6.25 17.81z" fill="#e6e9ed"/></g><g><path d="m22.82 52c-.3-1.51-.88-2.68-1.31-4.39 0 0 0 0 0-.01-.29-1.18-.51-2.61-.51-4.6 0 0-1.32 0-2.44 1.52l-.01-.01c-.3-.78-.71-1.45-1.11-2.12-.73-1.21-1.44-2.45-1.44-4.39 0 0-3 1-3 5v2c0-4-3-5-3-5 0 2.48-1.15 3.8-2.02 5.4-1.19-2.4-2.98-2.4-2.98-2.4 0 6-2 7-2 11 0 1.64 1.18 2.61 2.57 3.18 1.99.82 4.43.82 4.43.82h6s2.47 0 4.47-.84c1.37-.57 2.53-1.54 2.53-3.16 0-.75-.07-1.4-.18-2z" fill="#ff826e"/></g><g><path d="m15.4 53.2c.39.52.6 1.15.6 1.8 0 .83-.34 1.58-.88 2.12s-1.29.88-2.12.88-1.58-.34-2.12-.88-.88-1.29-.88-2.12c0-.65.21-1.28.6-1.8l2.4-3.2z" fill="#fc6e51"/></g><g><path d="m5.57 57.18c1.99.82 4.43.82 4.43.82h-1c-.55 0-1.05.22-1.41.59-.37.36-.59.86-.59 1.41 0 .36.1.71.27 1h-3.16c-1 0-1.92-.68-2.08-1.66-.21-1.26.76-2.34 1.97-2.34.54 0 1.05.05 1.57.18z" fill="#cf9e76"/></g><g><path d="m19 60c0-1.1-.9-2-2-2h-1s2.47 0 4.47-.84c.5-.1 1.01-.16 1.53-.16 1.21 0 2.18 1.08 1.97 2.34-.16.98-1.08 1.66-2.08 1.66h-3.16c.17-.29.27-.64.27-1z" fill="#cf9e76"/></g><g><path d="m19 60c0 .36-.1.71-.27 1-.09.15-.19.29-.32.41-.36.37-.86.59-1.41.59h-8c-.74 0-1.38-.4-1.73-1-.17-.29-.27-.64-.27-1 0-.55.22-1.05.59-1.41.36-.37.86-.59 1.41-.59h1 3 3 1c1.1 0 2 .9 2 2z" fill="#b27946"/></g></g><path d="m63 50.607-2.274-2.449c-4.32-4.651-8.067-9.727-11.233-15.158h7.507v-2.393l-2.274-2.449c-7.211-7.766-12.862-16.691-16.797-26.53l-.252-.628h-15.354l-.252.628c-3.935 9.838-9.586 18.764-16.797 26.53l-2.274 2.449v2.393h19.505c-1.514 2.595-3.165 5.11-4.946 7.536-.333-.725-.559-1.51-.559-2.536v-1.387l-1.316.438c-.119.04-2.345.825-3.276 3.453-.959-1.053-2.011-1.426-2.091-1.453l-1.317-.438v1.387c0 1.502-.478 2.491-1.082 3.523-1.323-1.482-2.806-1.523-2.918-1.523h-1v1c0 3.138-.559 4.785-1.098 6.377-.464 1.368-.902 2.66-.902 4.623 0 .911.276 1.661.725 2.286-.383.18-.729.44-1.011.771-.571.672-.816 1.561-.674 2.439.232 1.428 1.551 2.504 3.066 2.504h2.674c.55.609 1.337 1 2.22 1h8c.883 0 1.67-.391 2.22-1h2.674c1.516 0 2.834-1.076 3.066-2.503.143-.879-.103-1.768-.674-2.439-.282-.331-.628-.591-1.011-.771.449-.626.725-1.376.725-2.287 0-.356-.019-.684-.045-1h39.045zm-9.739-21.087 1.375 1.48h-6.266c-1.655-3.023-3.15-6.143-4.441-9.372l-.252-.628h-6.677v-16.451c3.969 9.205 9.419 17.604 16.261 24.971zm-46.522 0c7.226-7.781 12.921-16.701 16.935-26.52h9.816c-3.896 9.316-9.204 17.913-15.826 25.554l-2.121 2.446h-10.179zm11.451 1.48.985-1.137c6.575-7.585 11.879-16.094 15.825-25.303v16.44h-6.677l-.252.628c-1.286 3.215-2.775 6.341-4.436 9.372zm3.81 12v-1h-1c-.09 0-1.083.024-2.16.821-.069-.124-.14-.244-.211-.365 4.494-5.99 8.212-12.526 11.045-19.456h.664c4.004 9.812 9.542 18.85 16.487 26.863l.985 1.137h-5.329l-5.453-6.816c-3.887-4.859-6.028-10.961-6.028-17.184h-2c0 6.223-2.141 12.325-6.028 17.184l-.856 1.07c-.072-.662-.116-1.399-.116-2.254zm-17.204 7.019c.482-1.423 1.021-3.008 1.166-5.605.883.649 2.038 2.314 2.038 6.586h2c0-2.46-.373-4.23-.908-5.529.089-.152.176-.305.265-.456.556-.925 1.164-1.94 1.46-3.288.587.603 1.183 1.621 1.183 3.273v1h2v-3c0-1.647.596-2.666 1.184-3.27.296 1.346.904 2.359 1.459 3.284.287.478.546.944.772 1.43-.798 1.33-1.415 3.374-1.415 6.556h2c0-4.281 1.16-5.945 2.038-6.591.146 2.6.684 4.186 1.166 5.61.427 1.26.796 2.348.796 3.981 0 2.435-4.157 2.894-5.545 2.979.337-.586.545-1.256.545-1.979 0-.859-.284-1.711-.8-2.4l-3.2-4.267-3.201 4.267c-.515.689-.799 1.541-.799 2.4 0 .724.208 1.394.546 1.98-.771-.046-2.388-.206-3.684-.759l.002-.008c-.01-.002-.019-.003-.029-.005-1.024-.442-1.835-1.131-1.835-2.208 0-1.633.369-2.721.796-3.981zm6.204 4.981c0-.43.142-.856.399-1.2l1.601-2.133 1.6 2.133c.258.344.4.77.4 1.2 0 1.103-.897 2-2 2s-2-.897-2-2zm-6.894 5c-.537 0-1.017-.362-1.092-.825-.05-.303.029-.595.223-.822.191-.225.469-.353.763-.353.422 0 .844.05 1.258.135.371.151.755.28 1.146.388-.25.438-.404.937-.404 1.477zm12.894 1h-8c-.552 0-1-.449-1-1s.448-1 1-1h1 6 1c.552 0 1 .449 1 1s-.448 1-1 1zm4.894-1h-1.894c0-.54-.154-1.039-.405-1.477.397-.109.787-.24 1.163-.394.408-.083.825-.129 1.242-.129.294 0 .572.128.763.353.193.227.272.519.223.822-.076.463-.555.825-1.092.825zm1.204-10.623c-.167-.492-.333-.995-.486-1.54l1.923-2.404c2.567-3.209 4.418-6.927 5.466-10.866 1.048 3.94 2.899 7.657 5.466 10.866l4.452 5.567h-16.313c-.149-.559-.326-1.086-.508-1.623zm27.359 1.623-2.12-2.446c-6.622-7.641-11.931-16.238-15.826-25.554h9.816c4.014 9.819 9.709 18.739 16.935 26.52l1.374 1.48z"/></g></svg>