<?xml version="1.0" encoding="iso-8859-1"?>
<!-- Generator: Adobe Illustrator 19.0.0, SVG Export Plug-In . SVG Version: 6.00 Build 0)  -->
<svg version="1.1" id="Capa_1" xmlns="http://www.w3.org/2000/svg" xmlns:xlink="http://www.w3.org/1999/xlink" x="0px" y="0px"
	 viewBox="0 0 511.999 511.999" style="enable-background:new 0 0 511.999 511.999;" xml:space="preserve">
<polyline style="fill:#D8254F;" points="414.158,328.781 313.288,328.781 297.068,185.84 417.199,185.84 "/>
<polyline style="fill:#F9CE55;" points="427.844,158.468 291.999,158.468 290.985,75.339 415.678,75.339 "/>
<path style="fill:#E2A11E;" d="M291.492,158.468L291.492,158.468c-8.678,0-15.713-7.036-15.713-15.713V91.052
	c0-8.678,7.036-15.713,15.713-15.713l0,0c8.678,0,15.713,7.036,15.713,15.713v51.702
	C307.205,151.432,300.171,158.468,291.492,158.468z"/>
<g>
	<path style="fill:#D8254F;" d="M313.288,328.781h-31.427V201.553c0-8.678,7.036-15.713,15.713-15.713l0,0
		c8.678,0,15.713,7.036,15.713,15.713V328.781z"/>
	<polyline style="fill:#D8254F;" points="170.854,328.781 69.984,328.781 53.764,185.84 173.895,185.84 	"/>
</g>
<polyline style="fill:#F9CE55;" points="184.54,158.468 48.695,158.468 47.681,75.339 172.374,75.339 "/>
<path style="fill:#FCD2BE;" d="M479.532,38.671v76.783c0,35.188-28.538,63.725-63.736,63.725c-9.428,0-18.369-2.048-26.419-5.718
	v-0.01c-19.474-8.881-33.698-27.28-36.708-49.259c-2.828-0.993-5.484-2.616-7.755-4.886c-8.029-8.019-8.029-21.036,0-29.055
	c8.019-8.039,21.046-8.039,29.075,0l5.353-30.687l3.65-20.894L479.532,38.671L479.532,38.671z"/>
<path style="fill:#FAB998;" d="M389.377,173.451c-19.474-8.881-33.698-27.28-36.708-49.259c-2.828-0.993-5.484-2.616-7.755-4.886
	c-8.029-8.019-8.029-21.036,0-29.055c8.019-8.039,21.046-8.039,29.075,0l5.353-30.687l16.778,3.406
	C389.063,75.167,359.268,119.681,389.377,173.451z"/>
<path style="fill:#50515B;" d="M352.409,59.626v25.841c7.269-2.656,15.734-1.054,21.573,4.785V74.832
	c4.227,0,7.867-0.598,11.02-1.642c18.765-6.143,19.829-27.544,19.829-27.544c20.326,20.316,74.694,13.98,74.694,13.98
	c0-14.355-5.819-27.351-15.227-36.759C454.901,13.469,441.905,7.65,427.55,7.65h-23.165C375.685,7.65,352.409,30.916,352.409,59.626
	z"/>
<path style="fill:#393A42;" d="M352.409,59.626v25.841c7.269-2.656,15.734-1.054,21.573,4.785V74.832
	c4.227,0,7.867-0.598,11.02-1.642c-5.535-29.947,7.958-65.54,33.302-65.54h-13.919C375.685,7.65,352.409,30.916,352.409,59.626z"/>
<path style="fill:#FCD2BE;" d="M235.968,38.671v76.783c0,35.188-28.538,63.725-63.736,63.725c-9.428,0-18.369-2.048-26.419-5.718
	v-0.01c-19.474-8.881-33.698-27.28-36.708-49.259c-2.828-0.993-5.484-2.616-7.755-4.886c-8.029-8.019-8.029-21.036,0-29.055
	c8.019-8.039,21.046-8.039,29.075,0l5.353-30.687l3.65-20.894L235.968,38.671L235.968,38.671z"/>
<path style="fill:#FAB998;" d="M145.814,173.451c-19.474-8.881-33.698-27.28-36.708-49.259c-2.828-0.993-5.484-2.616-7.755-4.886
	c-8.029-8.019-8.029-21.036,0-29.055c8.019-8.039,21.046-8.039,29.075,0l5.353-30.687l16.778,3.406
	C145.499,75.167,115.705,119.681,145.814,173.451z"/>
<path style="fill:#6B4B3D;" d="M265.763,7.599c0,30.585-24.797,55.372-55.372,55.372h-57.835v5.14
	c0,12.226-9.915,22.131-22.141,22.131c-5.92-5.92-14.568-7.471-21.908-4.653V62.971c0-30.575,24.797-55.372,55.372-55.372
	C163.879,7.599,265.763,7.599,265.763,7.599z"/>
<path style="fill:#5B3D2D;" d="M209.072,7.599h-45.193c-30.575,0-55.372,24.797-55.372,55.372v22.617
	c7.34-2.818,15.987-1.267,21.908,4.653c12.226,0,22.141-9.905,22.141-22.131v-5.14h1.145C153.7,32.396,178.496,7.599,209.072,7.599z
	"/>
<path style="fill:#00C7A9;" d="M221.633,332.582c0,0-39.071,19.535-78.628,11.892c-14.801-2.849-29.673-9.509-42.588-22.425
	c0,0,12.378-82.916,35.573-131.374c3.082-6.437,6.356-12.267,9.823-17.214l14.426,1.115l29.156,2.261
	c0,4.055,0.517,11.993,1.581,22.343C194.586,234.582,204.501,298.327,221.633,332.582z"/>
<path style="fill:#04AF92;" d="M143.005,344.474c-14.801-2.849-29.673-9.509-42.588-22.425c0,0,15.886-106.425,45.396-148.588
	l14.426,1.115l4.177,4.126C153.62,200.874,128.336,286.669,143.005,344.474z"/>
<path style="fill:#00C7A9;" d="M465.189,332.582c0,0-39.071,19.535-78.628,11.892c-14.801-2.849-29.673-9.509-42.588-22.425
	c0,0,15.886-106.425,45.396-148.588l14.426,1.115l29.156,2.261C432.951,194.761,443.048,288.311,465.189,332.582z"/>
<path style="fill:#04AF92;" d="M386.561,344.474c-14.801-2.849-29.673-9.509-42.588-22.425c0,0,15.886-106.425,45.396-148.588
	l14.426,1.115l4.177,4.126C397.175,200.874,371.892,286.669,386.561,344.474z"/>
<path style="fill:#E2A11E;" d="M48.188,158.468L48.188,158.468c-8.678,0-15.713-7.036-15.713-15.713V91.052
	c0-8.678,7.036-15.713,15.713-15.713l0,0c8.678,0,15.713,7.036,15.713,15.713v51.702C63.901,151.432,56.867,158.468,48.188,158.468z
	"/>
<path style="fill:#D8254F;" d="M69.984,328.781H38.557V201.553c0-8.678,7.036-15.713,15.713-15.713l0,0
	c8.678,0,15.713,7.036,15.713,15.713V328.781z"/>
<path d="M291.492,166.071c0.114,0,0.225-0.007,0.338-0.008c0.057,0.001,0.113,0.008,0.169,0.008h51.702
	c4.2,0,7.603-3.404,7.603-7.603s-3.403-7.603-7.603-7.603h-30.349c0.941-2.527,1.457-5.259,1.457-8.11V91.052
	c0-2.851-0.517-5.583-1.457-8.11h16.663c4.2,0,7.603-3.404,7.603-7.603s-3.403-7.603-7.603-7.603h-39.03
	c-0.173,0-0.342,0.014-0.512,0.025c-12.386,0.536-22.298,10.775-22.298,23.291v51.702
	C268.175,155.611,278.635,166.071,291.492,166.071z M283.382,91.052c0-4.472,3.638-8.11,8.11-8.11s8.11,3.638,8.11,8.11v51.702
	c0,4.472-3.638,8.11-8.11,8.11s-8.11-3.638-8.11-8.11V91.052z"/>
<path d="M325.453,321.178h-4.562V201.553c0-2.851-0.517-5.583-1.457-8.11h38.459c4.2,0,7.603-3.404,7.603-7.603
	s-3.403-7.603-7.603-7.603h-60.826c-0.173,0-0.342,0.014-0.512,0.025c-12.386,0.536-22.298,10.775-22.298,23.291v127.228
	c0,4.199,3.403,7.603,7.603,7.603h31.427h12.165c4.2,0,7.603-3.404,7.603-7.603C333.056,324.582,329.653,321.178,325.453,321.178z
	 M289.464,201.553c0-4.472,3.638-8.11,8.11-8.11s8.11,3.638,8.11,8.11v119.624h-16.22V201.553z"/>
<path d="M189.18,100.562V90.02c0-4.199-3.403-7.603-7.603-7.603c-4.2,0-7.603,3.404-7.603,7.603v10.541
	c0,4.199,3.403,7.603,7.603,7.603C185.776,108.165,189.18,104.761,189.18,100.562z"/>
<path d="M201.379,90.02v10.541c0,4.199,3.403,7.603,7.603,7.603c4.2,0,7.603-3.404,7.603-7.603V90.02
	c0-4.199-3.403-7.603-7.603-7.603C204.782,82.417,201.379,85.821,201.379,90.02z"/>
<path d="M164.988,129.597c-2.085-3.646-6.729-4.913-10.373-2.829c-3.647,2.083-4.914,6.727-2.829,10.374
	c6.518,11.405,17.679,17.845,32.282,18.625c0.139,0.007,0.275,0.011,0.413,0.011c4.012,0,7.369-3.143,7.585-7.198
	c0.224-4.193-2.994-7.774-7.187-7.998C175.43,140.077,168.923,136.483,164.988,129.597z"/>
<path d="M273.363,7.603c0-4.199-3.403-7.603-7.603-7.603H163.88c-34.724,0-62.972,28.249-62.972,62.972
	c0,4.199,3.403,7.603,7.603,7.603c4.2,0,7.603-3.404,7.603-7.603c0-26.338,21.428-47.766,47.766-47.766h93.671
	c-3.652,22.738-23.41,40.162-47.161,40.162h-57.836c-4.2,0-7.603,3.404-7.603,7.603v5.137c0,7.136-5.17,13.087-11.96,14.304
	c-7.696-5.885-18.002-7.458-27.192-3.928c-3.681,1.403-6.987,3.553-9.821,6.388c-5.321,5.315-8.253,12.384-8.253,19.907
	c0,7.523,2.932,14.592,8.248,19.902c1.896,1.896,4.005,3.487,6.308,4.759c6.569,32.975,35.916,57.343,69.953,57.343
	c39.336,0,71.339-31.998,71.339-71.329V79.618c0-4.199-3.403-7.603-7.603-7.603s-7.603,3.404-7.603,7.603v35.837
	c0,30.945-25.181,56.122-56.132,56.122c-27.91,0-51.811-20.815-55.595-48.416c-0.387-2.825-2.323-5.196-5.013-6.141
	c-1.851-0.651-3.499-1.689-4.902-3.092c-2.444-2.442-3.791-5.69-3.791-9.147c0-3.457,1.347-6.706,3.795-9.15
	c1.313-1.312,2.823-2.3,4.506-2.942c4.772-1.833,10.192-0.682,13.816,2.941c1.562,1.562,3.642,2.302,5.718,2.217
	c15.41-0.176,28.042-12.135,29.292-27.269h50.334C245.114,70.575,273.363,42.326,273.363,7.603z"/>
<path d="M432.738,100.562V90.02c0-4.199-3.403-7.603-7.603-7.603s-7.603,3.404-7.603,7.603v10.541c0,4.199,3.403,7.603,7.603,7.603
	S432.738,104.761,432.738,100.562z"/>
<path d="M444.938,90.02v10.541c0,4.199,3.403,7.603,7.603,7.603s7.603-3.404,7.603-7.603V90.02c0-4.199-3.403-7.603-7.603-7.603
	S444.938,85.821,444.938,90.02z"/>
<path d="M408.547,129.597c-2.085-3.646-6.728-4.913-10.373-2.829c-3.647,2.083-4.914,6.727-2.829,10.374
	c6.517,11.405,17.679,17.845,32.282,18.625c0.139,0.007,0.275,0.011,0.413,0.011c4.012,0,7.369-3.143,7.585-7.198
	c0.224-4.193-2.994-7.774-7.187-7.998C418.988,140.077,412.482,136.483,408.547,129.597z"/>
<path d="M479.524,75.339c-4.2,0-7.603,3.404-7.603,7.603v32.507c0,30.947-25.177,56.125-56.124,56.125
	c-27.91,0-51.811-20.816-55.595-48.42c-0.388-2.829-2.329-5.203-5.024-6.145c-1.847-0.646-3.492-1.682-4.893-3.083
	c-2.446-2.443-3.794-5.692-3.794-9.15s1.347-6.707,3.801-9.157c2.443-2.446,5.693-3.794,9.151-3.794c3.46,0,6.714,1.349,9.162,3.798
	c2.176,2.175,5.443,2.824,8.287,1.648c2.842-1.177,4.694-3.95,4.694-7.024V81.84c15.863-2.596,24.258-13.257,28.119-23.365
	c9.804,5.244,23.073,8.385,39.643,9.367c16.607,0.984,30.475-0.597,31.057-0.665c3.832-0.446,6.723-3.693,6.723-7.553
	c0-32.851-26.726-59.578-59.578-59.578h-23.166c-32.851,0-59.579,26.727-59.579,59.578c0,4.199,3.403,7.603,7.603,7.603
	s7.603-3.404,7.603-7.603c0-24.466,19.905-44.372,44.373-44.372h23.166c22.104,0,40.486,16.248,43.828,37.427
	c-17.466,1.016-48.696,0.058-61.17-12.416c-2.128-2.127-5.305-2.799-8.111-1.718c-2.806,1.081-4.71,3.714-4.86,6.716
	c-0.002,0.056-0.412,5.785-3.459,11.292c-3.974,7.182-10.45,10.673-19.797,10.673c-4.2,0-7.603,3.404-7.603,7.603v2.644
	c-2.24-0.566-4.566-0.857-6.936-0.857c-7.524,0-14.595,2.932-19.904,8.248c-5.323,5.316-8.255,12.387-8.255,19.91
	s2.932,14.594,8.251,19.905c1.897,1.897,4.008,3.488,6.311,4.758c6.571,32.974,35.918,57.341,69.952,57.341
	c39.332,0,71.331-31.999,71.331-71.332V82.942C487.128,78.743,483.723,75.339,479.524,75.339z"/>
<path d="M48.188,166.071c0.114,0,0.225-0.007,0.338-0.008c0.057,0.001,0.113,0.008,0.169,0.008h51.702
	c4.2,0,7.603-3.404,7.603-7.603s-3.403-7.603-7.603-7.603H70.048c0.941-2.527,1.457-5.259,1.457-8.11V91.052
	c0-2.851-0.517-5.583-1.457-8.11h18.184c4.2,0,7.603-3.404,7.603-7.603s-3.403-7.603-7.603-7.603H47.681
	c-0.173,0-0.342,0.014-0.512,0.025c-12.386,0.536-22.298,10.776-22.298,23.291v51.702C24.871,155.611,35.331,166.071,48.188,166.071
	z M40.078,91.052c0-4.472,3.638-8.11,8.11-8.11s8.11,3.638,8.11,8.11v51.702c0,4.472-3.638,8.11-8.11,8.11s-8.11-3.638-8.11-8.11
	V91.052z"/>
<path d="M82.149,321.178h-4.562v-59.572c0-4.199-3.403-7.603-7.603-7.603c-4.2,0-7.603,3.404-7.603,7.603v59.572H46.16V201.553
	c0-4.472,3.638-8.11,8.11-8.11s8.11,3.638,8.11,8.11v35.722c0,4.199,3.403,7.603,7.603,7.603c4.2,0,7.603-3.404,7.603-7.603v-35.722
	c0-2.851-0.517-5.583-1.457-8.11h38.459c4.2,0,7.603-3.404,7.603-7.603s-3.403-7.603-7.603-7.603H53.764
	c-0.173,0-0.342,0.014-0.512,0.025c-12.386,0.536-22.298,10.775-22.298,23.291v127.228c0,4.199,3.403,7.603,7.603,7.603h31.427
	h12.165c4.2,0,7.603-3.404,7.603-7.603C89.752,324.582,86.349,321.178,82.149,321.178z"/>
<path d="M198.901,201.896c-0.128-1.184-0.252-2.36-0.37-3.517c-0.426-4.178-4.147-7.223-8.335-6.793
	c-4.178,0.426-7.219,4.158-6.792,8.335c1.479,14.506,9.479,85.562,28.057,128.773c-7.238,2.848-19.637,7.021-34.085,8.925
	c-28.181,3.717-51.31-2.447-68.822-18.32c0.651-3.973,1.815-10.787,3.471-19.413h0.296c4.815,0,9.455-0.761,13.814-2.158
	c1.593,4.491,3.74,8.929,6.624,13.081c8.131,11.703,20.382,18.912,36.41,21.426c0.399,0.063,0.796,0.093,1.187,0.093
	c3.68,0,6.914-2.677,7.502-6.426c0.652-4.148-2.185-8.039-6.333-8.689c-11.905-1.867-20.488-6.782-26.239-15.024
	c-2.504-3.589-4.267-7.557-5.502-11.595c10.864-8.294,17.89-21.369,17.89-36.061v-7.627c0-16.098-8.437-30.253-21.114-38.304
	c1.845-4.739,3.772-9.291,5.783-13.566c1.787-3.801,0.155-8.329-3.644-10.116c-3.803-1.787-8.328-0.156-10.116,3.643
	c-2.112,4.488-4.129,9.237-6.056,14.16c-3.283-0.758-6.695-1.172-10.206-1.172H87.218c-4.2,0-7.603,3.404-7.603,7.603
	s3.403,7.603,7.603,7.603h25.103c1.69,0,3.345,0.147,4.96,0.416c-7.758,22.967-13.696,47.851-17.77,67.507H87.218
	c-4.2,0-7.603,3.404-7.603,7.603c0,4.199,3.403,7.603,7.603,7.603h9.293c-2.25,12.016-3.461,20.019-3.613,21.039
	c-0.356,2.383,0.44,4.794,2.143,6.498c6.653,6.653,14.122,12.066,22.298,16.228c0.068,0.167,0.133,0.335,0.213,0.499
	c0.364,0.746,35.95,75.616-8.049,156.614c-1.279,2.356-1.224,5.212,0.147,7.516c1.372,2.304,3.854,3.716,6.535,3.716h26.351
	c4.2,0,7.603-3.404,7.603-7.603c0-4.199-3.403-7.603-7.603-7.603h-14.013c19.396-41.725,19.964-80.81,16.701-107.139
	c-2.037-16.423-5.708-29.801-8.783-38.903c8.143,2.042,16.778,3.098,25.861,3.098c5.677,0,11.528-0.403,17.527-1.214
	c5.305-0.717,10.33-1.699,14.975-2.804c7.276,18.965,26.604,82.778-10.422,150.937c-1.279,2.356-1.224,5.212,0.147,7.516
	c1.372,2.304,3.854,3.716,6.535,3.716h26.351c4.2,0,7.603-3.404,7.603-7.603c0-4.199-3.403-7.603-7.603-7.603h-14.013
	c19.396-41.725,19.964-80.81,16.7-107.139c-2.462-19.864-7.315-35.267-10.614-44.041c9.285-3.135,15.113-6.013,15.547-6.23
	c1.803-0.902,3.176-2.484,3.814-4.396c0.638-1.913,0.489-4.001-0.413-5.805c-4.737-9.475-8.996-21.639-12.746-35.132
	c14.044-7.952,23.089-23.072,23.089-39.517v-7.624C238.776,223.756,221.333,204.612,198.901,201.896z M142.468,246.907v7.627
	c0,6.315-1.956,12.18-5.288,17.029c0.001-7.578,1.049-13.087,1.083-13.258c0.829-4.111-1.827-8.117-5.937-8.954
	c-4.121-0.839-8.13,1.821-8.967,5.936c-0.165,0.815-2.548,13.005-0.69,27.563c-2.388,0.876-4.92,1.452-7.545,1.695
	c3.878-18.279,9.282-40.554,16.108-61.095C138.079,228.984,142.468,237.44,142.468,246.907z M223.57,254.533
	c0,9.498-4.546,18.323-11.858,23.945c-4.678-19.874-8.345-41.341-10.913-60.802c13.069,3.3,22.772,15.154,22.772,29.233v7.624
	H223.57z"/>
<path d="M442.434,201.69c-0.127-1.18-0.243-2.288-0.348-3.31c-0.426-4.178-4.155-7.223-8.335-6.793
	c-4.178,0.426-7.219,4.157-6.792,8.335c0.81,7.949,2.28,20.676,4.685,36.164c0.583,3.754,3.82,6.438,7.504,6.438
	c0.387,0,0.781-0.029,1.175-0.091c4.149-0.644,6.991-4.53,6.347-8.68c-0.926-5.963-1.707-11.496-2.366-16.498
	c13.979,2.617,24.594,14.901,24.594,29.628v7.624c0,10.146-5.178,19.531-13.385,25.056c-1.797-7.559-3.514-15.622-5.13-24.172
	c-0.78-4.126-4.754-6.838-8.883-6.059c-4.126,0.78-6.839,4.757-6.059,8.883c5.59,29.585,12.161,53.238,19.574,70.48
	c-7.238,2.848-19.638,7.021-34.085,8.925c-28.181,3.717-51.311-2.447-68.823-18.32c0.651-3.973,1.816-10.788,3.471-19.413h0.045
	c4.815,0,9.455-0.761,13.814-2.158c1.593,4.491,3.74,8.929,6.624,13.081c8.131,11.703,20.382,18.912,36.41,21.426
	c0.399,0.063,0.796,0.093,1.187,0.093c3.68,0,6.914-2.677,7.502-6.426c0.652-4.148-2.185-8.039-6.333-8.689
	c-11.905-1.867-20.488-6.782-26.239-15.024c-2.504-3.589-4.267-7.557-5.502-11.595c10.864-8.294,17.89-21.369,17.89-36.061v-7.627
	c0-16.012-8.348-30.102-20.913-38.174c1.859-4.786,3.804-9.381,5.833-13.695c1.787-3.801,0.155-8.329-3.645-10.116
	c-3.802-1.787-8.329-0.156-10.116,3.643c-2.119,4.504-4.144,9.272-6.078,14.214c-3.353-0.793-6.844-1.226-10.436-1.226h-25.103
	c-4.2,0-7.603,3.404-7.603,7.603s3.403,7.603,7.603,7.603h25.103c1.773,0,3.508,0.162,5.198,0.457
	c-7.751,22.955-13.684,47.82-17.756,67.465H330.52c-4.2,0-7.603,3.404-7.603,7.603c0,4.199,3.403,7.603,7.603,7.603h9.544
	c-2.25,12.016-3.461,20.019-3.614,21.039c-0.356,2.383,0.44,4.794,2.143,6.498c6.654,6.654,14.125,12.068,22.303,16.23
	c0.067,0.166,0.132,0.333,0.212,0.497c0.364,0.746,35.95,75.616-8.049,156.614c-1.279,2.356-1.224,5.212,0.147,7.516
	c1.372,2.304,3.854,3.716,6.535,3.716h26.352c4.2,0,7.603-3.404,7.603-7.603c0-4.199-3.403-7.603-7.603-7.603h-14.014
	c19.396-41.725,19.964-80.81,16.701-107.139c-2.037-16.422-5.708-29.801-8.782-38.902c8.142,2.042,16.775,3.097,25.857,3.097
	c5.677,0,11.529-0.403,17.528-1.214c5.306-0.718,10.332-1.699,14.978-2.805c7.275,18.964,26.604,82.778-10.422,150.938
	c-1.279,2.356-1.224,5.212,0.147,7.516c1.372,2.304,3.854,3.716,6.535,3.716h26.352c4.2,0,7.603-3.404,7.603-7.603
	c0-4.199-3.403-7.603-7.603-7.603h-14.012c19.396-41.725,19.964-80.81,16.701-107.139c-2.462-19.864-7.316-35.268-10.614-44.042
	c9.283-3.134,15.11-6.012,15.544-6.229c1.803-0.902,3.176-2.484,3.814-4.396c0.638-1.913,0.489-4.001-0.413-5.805
	c-4.394-8.788-8.611-20.389-12.525-34.32c14.925-7.693,24.64-23.314,24.64-40.356v-7.624
	C484.104,223.116,465.724,203.574,442.434,201.69z M385.772,246.907v7.627c0,6.315-1.956,12.18-5.288,17.029
	c0.001-7.578,1.049-13.087,1.083-13.258c0.829-4.111-1.827-8.117-5.937-8.954c-4.124-0.839-8.13,1.821-8.967,5.936
	c-0.165,0.815-2.548,13.005-0.69,27.563c-2.311,0.848-4.755,1.419-7.29,1.676c3.868-18.23,9.253-40.428,16.052-60.918
	C381.469,229.143,385.772,237.532,385.772,246.907z"/>
<g>
</g>
<g>
</g>
<g>
</g>
<g>
</g>
<g>
</g>
<g>
</g>
<g>
</g>
<g>
</g>
<g>
</g>
<g>
</g>
<g>
</g>
<g>
</g>
<g>
</g>
<g>
</g>
<g>
</g>
</svg>
