<?xml version="1.0" encoding="iso-8859-1"?>
<!-- Generator: Adobe Illustrator 19.0.0, SVG Export Plug-In . SVG Version: 6.00 Build 0)  -->
<svg version="1.1" id="Capa_1" xmlns="http://www.w3.org/2000/svg" xmlns:xlink="http://www.w3.org/1999/xlink" x="0px" y="0px"
	 viewBox="0 0 512 512" style="enable-background:new 0 0 512 512;" xml:space="preserve">
<g>
	<path style="fill:#FCD2BE;" d="M496.663,278.035c1.381,3.599-0.111,7.589-3.35,9.452c-0.339,0.194-0.703,0.368-1.095,0.51
		c-15.376,5.896-29.8,5.749-42.873-0.432c-24.483-11.575-35.114-40.49-36.271-43.825l-0.129-0.306l-14.318-35.082
		c-1.618-3.948,0.283-8.447,4.222-10.06c3.948-1.618,8.457,0.278,10.06,4.222l13.316,32.595l1.226,2.999
		c0.056,0.158,0.125,0.32,0.171,0.484c0.083,0.249,8.92,25.9,28.381,35.056c9.237,4.339,19.267,4.318,30.697-0.058
		C490.677,272.064,495.145,274.054,496.663,278.035z"/>
	<path style="fill:#FCD2BE;" d="M249.696,278.035c1.381,3.599-0.111,7.589-3.35,9.452c-0.339,0.194-0.703,0.368-1.095,0.51
		c-15.376,5.896-29.8,5.749-42.873-0.432c-24.483-11.575-35.114-40.49-36.271-43.825l-0.129-0.306l-14.318-35.082
		c-1.618-3.948,0.283-8.447,4.222-10.06c3.948-1.618,8.457,0.278,10.06,4.222l13.316,32.595l1.226,2.999
		c0.056,0.158,0.125,0.32,0.171,0.484c0.083,0.249,8.92,25.9,28.381,35.056c9.237,4.339,19.267,4.318,30.697-0.058
		C243.71,272.064,248.178,274.054,249.696,278.035z"/>
</g>
<polyline style="fill:#F9CE55;" points="169.177,171.663 31.287,171.663 30.258,87.282 156.829,87.282 "/>
<path style="fill:#E2A11E;" d="M30.772,171.663L30.772,171.663c-8.809,0-15.95-7.141-15.95-15.95v-52.481
	c0-8.809,7.141-15.95,15.95-15.95l0,0c8.809,0,15.95,7.141,15.95,15.95v52.481C46.722,164.522,39.581,171.663,30.772,171.663z"/>
<g>
	<path style="fill:#50515B;" d="M457.487,504.282c0,4.26-3.447,7.718-7.718,7.718h-26.745c-2.696,0-5.186-1.41-6.596-3.705
		c-1.399-2.305-1.492-5.166-0.257-7.553c3.447-6.678,6.411-13.316,8.942-19.881c30.511-78.814-0.422-147.275-0.761-148.016
		c-1.801-3.869-0.123-8.459,3.746-10.249c3.869-1.801,8.459-0.113,10.249,3.746c0.422,0.906,10.249,22.381,14.16,55.496
		c2.922,24.841,2.799,60.342-10.939,99.024c-1.832,5.186-3.921,10.424-6.277,15.703h14.478
		C454.04,496.565,457.487,500.011,457.487,504.282z"/>
	<path style="fill:#50515B;" d="M381.483,504.282c0,4.26-3.458,7.718-7.718,7.718H347.02c-2.696,0-5.197-1.41-6.596-3.705
		c-1.399-2.305-1.502-5.166-0.268-7.553c3.447-6.678,6.411-13.316,8.942-19.881c30.511-78.814-0.422-147.275-0.761-148.016
		c-1.79-3.869-0.113-8.459,3.756-10.249c3.869-1.801,8.459-0.113,10.249,3.746c0.412,0.906,10.249,22.381,14.159,55.496
		c2.922,24.841,2.799,60.342-10.939,99.024c-1.832,5.186-3.921,10.424-6.277,15.703h14.478
		C378.025,496.565,381.483,500.011,381.483,504.282z"/>
</g>
<path style="fill:#D8254F;" d="M429.358,294.264c-3.124,0-6.064-1.91-7.226-5.007c-1.498-3.991,0.523-8.44,4.513-9.937
	c11.877-4.458,19.856-15.978,19.856-28.667v-7.738c0-16.875-13.729-30.603-30.603-30.603h-1.369c-4.263,0-7.718-3.455-7.718-7.718
	s3.454-7.718,7.718-7.718h1.369c25.386,0,46.039,20.653,46.039,46.039v7.738c0,19.084-12.003,36.413-29.867,43.117
	C431.176,294.106,430.26,294.264,429.358,294.264z"/>
<polyline style="fill:#EF4A6E;" points="402.253,326.018 299.864,326.018 283.399,180.924 405.34,180.924 "/>
<polyline style="fill:#F9CE55;" points="416.145,171.663 278.254,171.663 277.225,87.282 403.796,87.282 "/>
<path style="fill:#E2A11E;" d="M277.74,171.663L277.74,171.663c-8.809,0-15.95-7.141-15.95-15.95v-52.481
	c0-8.809,7.141-15.95,15.95-15.95l0,0c8.809,0,15.95,7.141,15.95,15.95v52.481C293.69,164.522,286.548,171.663,277.74,171.663z"/>
<path style="fill:#D8254F;" d="M299.864,326.018h-31.9V196.874c0-8.809,7.141-15.95,15.95-15.95l0,0
	c8.809,0,15.95,7.141,15.95,15.95V326.018z"/>
<path style="fill:#00C7A9;" d="M454.052,329.877c0,0-39.659,19.829-79.812,12.071c-15.024-2.892-30.12-9.652-43.23-22.762
	c0,0,16.125-108.028,46.08-150.825l14.643,1.132l29.595,2.295C421.329,189.98,431.578,284.939,454.052,329.877z"/>
<path style="fill:#04AF92;" d="M374.24,341.947c-15.024-2.892-30.12-9.652-43.23-22.762c0,0,16.125-108.028,46.08-150.825
	l14.643,1.132l4.24,4.188C385.014,196.185,359.35,283.272,374.24,341.947z"/>
<path style="fill:#D8254F;" d="M342.837,296.691h-25.481c-4.263,0-7.718-3.456-7.718-7.718c0-4.262,3.454-7.718,7.718-7.718h25.481
	c16.873,0,30.601-13.727,30.601-30.601v-7.741c0-16.874-13.728-30.601-30.601-30.601h-25.481c-4.263,0-7.718-3.455-7.718-7.718
	s3.454-7.718,7.718-7.718h25.481c25.385,0,46.037,20.652,46.037,46.037v7.741C388.875,276.039,368.223,296.691,342.837,296.691z"/>
<path style="fill:#FCD2BE;" d="M409.359,323.1c-0.597,3.807-3.879,6.524-7.615,6.524c-0.391,0-0.792-0.031-1.204-0.103
	c-16.269-2.552-28.7-9.868-36.953-21.743c-15.456-22.237-10.259-52.604-9.601-56.072l0.041-0.329l5.073-37.549
	c0.566-4.229,4.456-7.183,8.675-6.617c4.229,0.566,7.193,4.456,6.617,8.675l-4.703,34.894l-0.432,3.211
	c-0.031,0.165-0.051,0.34-0.093,0.504c-0.051,0.257-5.176,26.899,7.131,44.537c5.845,8.366,14.551,13.347,26.642,15.25
	C407.147,314.94,410.028,318.892,409.359,323.1z"/>
<path style="fill:#00C7A9;" d="M374.393,215.885l-4.703,34.894l-15.662,0.597l5.073-37.549c0.566-4.229,4.456-7.183,8.675-6.617
	C372.005,207.777,374.969,211.666,374.393,215.885z"/>
<path style="fill:#D8254F;" d="M317.353,212.283h25.481c16.873,0,30.601,13.727,30.601,30.601v2.328h15.435v-2.328
	c0-25.385-20.652-46.037-46.037-46.037h-25.481c-4.263,0-7.718,3.455-7.718,7.718C309.636,208.828,313.09,212.283,317.353,212.283z"
	/>
<g>
	<path style="fill:#3FACC9;" d="M381.483,504.282c0,4.26-3.458,7.718-7.718,7.718H347.02c-2.696,0-5.197-1.41-6.596-3.705
		c-1.399-2.305-1.502-5.166-0.268-7.553c3.447-6.678,6.411-13.316,8.942-19.881h16.465c-1.832,5.186-3.921,10.424-6.277,15.703
		h14.478C378.025,496.565,381.483,500.011,381.483,504.282z"/>
	<path style="fill:#3FACC9;" d="M457.487,504.282c0,4.26-3.447,7.718-7.718,7.718h-26.745c-2.696,0-5.186-1.41-6.596-3.705
		c-1.399-2.305-1.492-5.166-0.257-7.553c3.447-6.678,6.411-13.316,8.942-19.881h16.454c-1.832,5.186-3.921,10.424-6.277,15.703
		h14.478C454.04,496.565,457.487,500.011,457.487,504.282z"/>
</g>
<g>
	<path style="fill:#50515B;" d="M210.519,504.282c0,4.26-3.447,7.718-7.718,7.718h-26.745c-2.696,0-5.186-1.41-6.596-3.705
		c-1.399-2.305-1.492-5.166-0.257-7.553c3.447-6.678,6.411-13.316,8.942-19.881c30.511-78.814-0.422-147.275-0.761-148.016
		c-1.801-3.869-0.123-8.459,3.746-10.249c3.869-1.801,8.459-0.113,10.249,3.746c0.422,0.906,10.249,22.381,14.159,55.496
		c2.922,24.841,2.799,60.342-10.939,99.024c-1.832,5.186-3.921,10.424-6.277,15.703h14.478
		C207.072,496.565,210.519,500.011,210.519,504.282z"/>
	<path style="fill:#50515B;" d="M134.515,504.282c0,4.26-3.458,7.718-7.718,7.718h-26.745c-2.696,0-5.197-1.41-6.596-3.705
		c-1.399-2.305-1.502-5.166-0.268-7.553c3.447-6.678,6.411-13.316,8.942-19.881c30.511-78.814-0.422-147.275-0.761-148.016
		c-1.791-3.869-0.113-8.459,3.756-10.249c3.869-1.801,8.459-0.113,10.249,3.746c0.412,0.906,10.249,22.381,14.159,55.496
		c2.922,24.841,2.799,60.342-10.939,99.024c-1.832,5.186-3.921,10.424-6.277,15.703h14.478
		C131.057,496.565,134.515,500.011,134.515,504.282z"/>
</g>
<path style="fill:#D8254F;" d="M182.391,294.264c-3.124,0-6.064-1.91-7.226-5.007c-1.498-3.991,0.523-8.44,4.513-9.937
	c11.877-4.458,19.856-15.978,19.856-28.667v-7.738c0-16.875-13.729-30.603-30.603-30.603h-1.369c-4.263,0-7.718-3.455-7.718-7.718
	s3.454-7.718,7.718-7.718h1.369c25.386,0,46.039,20.653,46.039,46.039v7.738c0,19.084-12.003,36.413-29.867,43.117
	C184.208,294.106,183.292,294.264,182.391,294.264z"/>
<polyline style="fill:#EF4A6E;" points="155.285,326.018 52.896,326.018 36.432,180.924 158.372,180.924 "/>
<path style="fill:#D8254F;" d="M52.896,326.018h-31.9V196.874c0-8.809,7.141-15.95,15.95-15.95l0,0c8.809,0,15.95,7.141,15.95,15.95
	V326.018z"/>
<path style="fill:#00C7A9;" d="M207.084,329.877c0,0-39.659,19.829-79.812,12.071c-15.024-2.892-30.12-9.652-43.23-22.762
	c0,0,16.125-108.028,46.08-150.825l14.643,1.132l29.595,2.295C174.361,189.98,184.61,284.939,207.084,329.877z"/>
<path style="fill:#04AF92;" d="M127.273,341.947c-15.024-2.892-30.12-9.652-43.23-22.762c0,0,16.125-108.028,46.08-150.825
	l14.643,1.132l4.24,4.188C138.047,196.185,112.383,283.272,127.273,341.947z"/>
<path style="fill:#D8254F;" d="M95.87,296.691H70.39c-4.263,0-7.718-3.456-7.718-7.718c0-4.262,3.454-7.718,7.718-7.718h25.481
	c16.873,0,30.601-13.727,30.601-30.601v-7.741c0-16.874-13.728-30.601-30.601-30.601H70.39c-4.263,0-7.718-3.455-7.718-7.718
	s3.454-7.718,7.718-7.718h25.481c25.385,0,46.037,20.652,46.037,46.037v7.741C141.908,276.039,121.255,296.691,95.87,296.691z"/>
<path style="fill:#FCD2BE;" d="M162.391,323.1c-0.597,3.807-3.879,6.524-7.615,6.524c-0.391,0-0.792-0.031-1.204-0.103
	c-16.269-2.552-28.7-9.868-36.953-21.743c-15.456-22.237-10.259-52.604-9.601-56.072l0.041-0.329l5.073-37.549
	c0.566-4.229,4.456-7.183,8.675-6.617c4.229,0.566,7.193,4.456,6.617,8.675l-4.703,34.894l-0.432,3.211
	c-0.031,0.165-0.051,0.34-0.093,0.504c-0.051,0.257-5.176,26.899,7.131,44.537c5.845,8.366,14.551,13.347,26.642,15.25
	C160.179,314.94,163.06,318.892,162.391,323.1z"/>
<path style="fill:#00C7A9;" d="M127.425,215.885l-4.703,34.894l-15.662,0.597l5.073-37.549c0.566-4.229,4.456-7.183,8.675-6.617
	C125.038,207.777,128.001,211.666,127.425,215.885z"/>
<path style="fill:#D8254F;" d="M70.386,212.283h25.481c16.873,0,30.601,13.727,30.601,30.601v2.328h15.435v-2.328
	c0-25.385-20.652-46.037-46.037-46.037H70.386c-4.263,0-7.718,3.455-7.718,7.718C62.668,208.828,66.122,212.283,70.386,212.283z"/>
<g>
	<path style="fill:#EF4A6E;" d="M134.515,504.282c0,4.26-3.458,7.718-7.718,7.718h-26.745c-2.696,0-5.197-1.41-6.596-3.705
		c-1.399-2.305-1.502-5.166-0.268-7.553c3.447-6.678,6.411-13.316,8.942-19.881h16.465c-1.832,5.186-3.921,10.424-6.277,15.703
		h14.478C131.057,496.565,134.515,500.011,134.515,504.282z"/>
	<path style="fill:#EF4A6E;" d="M210.519,504.282c0,4.26-3.447,7.718-7.718,7.718h-26.745c-2.696,0-5.186-1.41-6.596-3.705
		c-1.399-2.305-1.492-5.166-0.257-7.553c3.447-6.678,6.411-13.316,8.942-19.881H194.6c-1.832,5.186-3.921,10.424-6.277,15.703
		h14.478C207.072,496.565,210.519,500.011,210.519,504.282z"/>
</g>
<path style="fill:#FCD2BE;" d="M468.611,31.54v77.939c0,35.718-28.967,64.685-64.695,64.685c-9.57,0-18.646-2.079-26.817-5.804
	v-0.01c-19.768-9.014-34.205-27.691-37.261-50.001c-2.871-1.008-5.567-2.655-7.872-4.96c-8.15-8.14-8.15-21.352,0-29.492
	c8.14-8.16,21.363-8.16,29.513,0l5.433-31.149l3.704-21.208L468.611,31.54L468.611,31.54z"/>
<path style="fill:#FAB998;" d="M377.099,168.35c-19.768-9.014-34.205-27.691-37.261-50.001c-2.871-1.008-5.567-2.655-7.872-4.96
	c-8.15-8.14-8.15-21.352,0-29.492c8.14-8.16,21.363-8.16,29.513,0l0.638-15.677l21.826-12.013
	C376.78,68.585,346.537,113.77,377.099,168.35z"/>
<path style="fill:#50515B;" d="M339.574,52.81v26.23c7.378-2.696,15.971-1.07,21.898,4.857V68.245c4.291,0,7.985-0.607,11.186-1.667
	c19.047-6.236,20.128-27.959,20.128-27.959c20.632,20.622,75.819,14.19,75.819,14.19c0-14.571-5.907-27.763-15.456-37.313
	c-9.539-9.539-22.731-15.446-37.302-15.446h-23.513C363.201,0.051,339.574,23.668,339.574,52.81z"/>
<path style="fill:#393A42;" d="M339.574,52.81v26.23c7.378-2.696,15.971-1.07,21.898,4.857l0.644-15.677
	c4.291,0,7.341-0.581,10.541-1.64c-5.618-30.398,8.078-66.527,33.804-66.527h-14.129C363.201,0.051,339.574,23.668,339.574,52.81z"
	/>
<g>
	<path style="fill:#50515B;" d="M413.395,102.08c-4.263,0-7.718-3.455-7.718-7.718v-10.7c0-4.262,3.454-7.718,7.718-7.718
		c4.263,0,7.718,3.455,7.718,7.718v10.7C421.113,98.624,417.657,102.08,413.395,102.08z"/>
	<path style="fill:#50515B;" d="M441.213,102.08c-4.263,0-7.718-3.455-7.718-7.718v-10.7c0-4.262,3.454-7.718,7.718-7.718
		c4.263,0,7.718,3.455,7.718,7.718v10.7C448.931,98.624,445.476,102.08,441.213,102.08z"/>
</g>
<path style="fill:#FFFFFF;" d="M416.342,150.409c-0.14,0-0.279-0.003-0.419-0.011c-14.822-0.792-26.153-7.33-32.768-18.905
	c-2.116-3.701-0.829-8.415,2.872-10.53c3.7-2.116,8.413-0.829,10.529,2.872c3.995,6.99,10.599,10.638,20.191,11.151
	c4.256,0.227,7.522,3.862,7.295,8.118C423.822,147.219,420.415,150.409,416.342,150.409z"/>
<path style="fill:#FCD2BE;" d="M221.38,31.54v77.939c0,35.718-28.967,64.685-64.695,64.685c-9.57,0-18.646-2.079-26.817-5.804v-0.01
	c-19.768-9.014-34.205-27.691-37.261-50.001c-2.871-1.008-5.567-2.655-7.872-4.96c-8.15-8.14-8.15-21.352,0-29.492
	c8.14-8.16,21.363-8.16,29.513,0l5.433-31.149l3.705-21.208L221.38,31.54L221.38,31.54z"/>
<path style="fill:#FAB998;" d="M129.868,168.35c-19.768-9.014-34.205-27.691-37.261-50.001c-2.871-1.008-5.567-2.655-7.872-4.96
	c-8.15-8.14-8.15-21.352,0-29.492c8.14-8.16,21.363-8.16,29.513,0l5.433-31.149l17.03,3.458
	C129.549,68.585,99.306,113.77,129.868,168.35z"/>
<path style="fill:#6B4B3D;" d="M251.623,0c0,31.046-25.17,56.206-56.206,56.206h-58.706v5.217c0,12.41-10.064,22.464-22.474,22.464
	c-6.01-6.01-14.787-7.584-22.237-4.723V56.206C91.999,25.17,117.17,0,148.205,0H251.623z"/>
<path style="fill:#5B3D2D;" d="M194.078,0h-45.873C117.17,0,91.999,25.17,91.999,56.206v22.958
	c7.45-2.861,16.228-1.286,22.237,4.723c12.41,0,22.474-10.054,22.474-22.464v-5.217h1.162C137.873,25.17,163.043,0,194.078,0z"/>
<g>
	<path style="fill:#50515B;" d="M166.169,102.08c-4.263,0-7.718-3.455-7.718-7.718v-10.7c0-4.262,3.454-7.718,7.718-7.718
		s7.718,3.455,7.718,7.718v10.7C173.887,98.624,170.431,102.08,166.169,102.08z"/>
	<path style="fill:#50515B;" d="M193.987,102.08c-4.263,0-7.718-3.455-7.718-7.718v-10.7c0-4.262,3.454-7.718,7.718-7.718
		c4.263,0,7.718,3.455,7.718,7.718v10.7C201.705,98.624,198.25,102.08,193.987,102.08z"/>
</g>
<path style="fill:#FFFFFF;" d="M169.116,150.409c-0.14,0-0.279-0.003-0.419-0.011c-14.822-0.792-26.153-7.33-32.768-18.905
	c-2.116-3.701-0.829-8.415,2.872-10.53c3.699-2.116,8.413-0.829,10.529,2.872c3.995,6.99,10.599,10.638,20.191,11.151
	c4.256,0.227,7.522,3.862,7.295,8.118C176.596,147.219,173.189,150.409,169.116,150.409z"/>
<g>
</g>
<g>
</g>
<g>
</g>
<g>
</g>
<g>
</g>
<g>
</g>
<g>
</g>
<g>
</g>
<g>
</g>
<g>
</g>
<g>
</g>
<g>
</g>
<g>
</g>
<g>
</g>
<g>
</g>
</svg>
