<?xml version="1.0"?>
<svg xmlns="http://www.w3.org/2000/svg" id="Filled" viewBox="0 0 512 512" width="512" height="512"><path d="M445.281,150.225A47.991,47.991,0,0,0,431.23,78a32,32,0,1,0-46.46,0,47.991,47.991,0,0,0-14.051,72.23,56,56,0,1,0,74.562,0Z" style="fill:#3dc285"/><path d="M141.281,150.225A47.991,47.991,0,0,0,127.23,78a32,32,0,1,0-46.46,0,47.991,47.991,0,0,0-14.051,72.23,56,56,0,1,0,74.562,0Z" style="fill:#3dc285"/><path d="M376,344a40,40,0,0,1,76.8-15.7A40,40,0,1,1,411.2,383.7,40,40,0,0,1,376,344Z" style="fill:#35a872"/><path d="M136,344a40,40,0,0,0-76.8-15.7A40,40,0,1,0,100.8,383.7,40,40,0,0,0,136,344Z" style="fill:#35a872"/><polygon points="448 408 64 408 256 128 352 268 420.57 368 431.54 384 448 408" style="fill:#a3d4f7"/><polygon points="256.021 248 367.719 408 256.021 408 144.323 408 256.021 248" style="fill:#2d85cc"/><path d="M458.191,321.1A47.95,47.95,0,0,0,416,296V255.482a63.974,63.974,0,0,0,39.692-106.144,55.977,55.977,0,0,0-13.051-73.333,40,40,0,1,0-69.282,0,55.977,55.977,0,0,0-13.051,73.333A63.974,63.974,0,0,0,400,255.482v43.233a47.253,47.253,0,0,0-12.629,6.722L265.952,128.367,294.247,93a8,8,0,0,0-12.494-10L256,115.194,230.247,83a8,8,0,1,0-12.494,10l28.3,35.369L124.629,305.437A47.253,47.253,0,0,0,112,298.715V255.482a63.974,63.974,0,0,0,39.692-106.144,55.977,55.977,0,0,0-13.051-73.333,40,40,0,1,0-69.282,0,55.977,55.977,0,0,0-13.051,73.333A63.974,63.974,0,0,0,96,255.482V296a47.95,47.95,0,0,0-42.191,25.1A48,48,0,0,0,64,416H448a48,48,0,0,0,10.191-94.9ZM56,192a48.068,48.068,0,0,1,16.048-35.808,8,8,0,0,0,.883-11.009A39.534,39.534,0,0,1,64,120,40.056,40.056,0,0,1,84.647,84.992a8,8,0,0,0,1.931-12.5,24,24,0,1,1,34.844,0,8,8,0,0,0,1.931,12.5A40.056,40.056,0,0,1,144,120a39.534,39.534,0,0,1-8.931,25.183,8,8,0,0,0,.883,11.009A47.985,47.985,0,0,1,112,239.321V120a8,8,0,0,0-16,0V239.321A48.07,48.07,0,0,1,56,192Zm3.966,207.737a31.991,31.991,0,0,1,.188-63.5,8,8,0,0,0,6.407-4.8,32.019,32.019,0,0,1,49-12.776Zm80.185.263H79.186l10.971-16h61.164ZM248,400H159.664L248,273.465Zm0-154.486L162.491,368H101.129L248,153.813ZM360,192a48.068,48.068,0,0,1,16.048-35.808,8,8,0,0,0,.883-11.009A39.534,39.534,0,0,1,368,120a40.056,40.056,0,0,1,20.647-35.008,8,8,0,0,0,1.931-12.5,24,24,0,1,1,34.844,0,8,8,0,0,0,1.931,12.5A40.056,40.056,0,0,1,448,120a39.534,39.534,0,0,1-8.931,25.183,8,8,0,0,0,.883,11.009A47.985,47.985,0,0,1,416,239.321V120a8,8,0,0,0-16,0V239.321A48.07,48.07,0,0,1,360,192Zm-96-38.187L410.871,368h-61.32L264,245.454ZM264,400V273.4L352.378,400Zm107.891,0-11.17-16h61.122l10.971,16Zm80.143-.263-55.593-81.073a32.019,32.019,0,0,1,49,12.776,8,8,0,0,0,6.407,4.8,31.991,31.991,0,0,1,.188,63.5Z"/><path d="M488,456H472a8,8,0,0,0,0,16h16a8,8,0,0,0,0-16Z"/><path d="M424,456a8,8,0,0,0,0,16h16a8,8,0,0,0,0-16Z"/><path d="M464,448a8,8,0,0,0,0-16H448a8,8,0,0,0,0,16Z"/><path d="M264,456H248a8,8,0,0,0,0,16h16a8,8,0,0,0,0-16Z"/><path d="M224,480a8,8,0,0,0,0,16h16a8,8,0,0,0,0-16Z"/><path d="M264,488a8,8,0,0,0,8,8h16a8,8,0,0,0,0-16H272A8,8,0,0,0,264,488Z"/><path d="M64,432H48a8,8,0,0,0,0,16H64a8,8,0,0,0,0-16Z"/><path d="M24,456a8,8,0,0,0,0,16H40a8,8,0,0,0,0-16Z"/><path d="M88,456H72a8,8,0,0,0,0,16H88a8,8,0,0,0,0-16Z"/></svg>
