<svg height="395pt" viewBox="0 0 395.94581 395" width="395pt" xmlns="http://www.w3.org/2000/svg"><path d="m30.71875 394.65625c-1.40625 0-2.804688-.433594-3.988281-1.285156-2.011719-1.449219-3.082031-3.875-2.792969-6.339844l10.820312-91.953125c-22.75-27.855469-34.757812-60.632813-34.757812-94.980469 0-90.339844 84.21875-163.839844 187.734375-163.839844s187.730469 73.5 187.730469 163.839844-84.214844 163.839844-187.730469 163.839844c-23.101563 0-45.683594-3.648438-67.171875-10.839844l-86.933594 40.914063c-.929687.433593-1.917968.644531-2.910156.644531zm157.015625-344.746094c-95.988281 0-174.082031 67.375-174.082031 150.1875 0 32.027344 11.5625 62.613282 33.4375 88.453125 1.222656 1.445313 1.789062 3.332031 1.570312 5.214844l-9.722656 82.652344 78.3125-36.851563c1.617188-.753906 3.472656-.855468 5.160156-.269531 20.832032 7.292969 42.808594 10.988281 65.324219 10.988281 95.984375 0 174.078125-67.375 174.078125-150.1875s-78.09375-150.1875-174.078125-150.1875zm0 0"/><path d="m290.132812 173.644531c0 9.425781-7.640624 17.066407-17.066406 17.066407-9.425781 0-17.066406-7.640626-17.066406-17.066407s7.640625-17.066406 17.066406-17.066406c9.425782 0 17.066406 7.640625 17.066406 17.066406zm0 0"/><path d="m101.78125 190.40625c-3.769531 0-6.828125-3.054688-6.828125-6.828125 0-7.191406-5.847656-13.039063-13.03125-13.039063-7.1875 0-13.035156 5.847657-13.035156 13.039063 0 3.773437-3.058594 6.828125-6.828125 6.828125-3.769532 0-6.824219-3.054688-6.824219-6.828125 0-14.71875 11.96875-26.695313 26.6875-26.695313 14.714844 0 26.683594 11.976563 26.683594 26.695313 0 3.773437-3.054688 6.828125-6.824219 6.828125zm0 0"/><path d="m182.613281 222.417969c14.769531 0 27.617188 6.90625 34.320313 17.105469 9.394531-7.777344 15.988281-18.824219 17.964844-31.421876.660156-4.214843-2.753907-8.003906-7.019532-8.003906h-87.117187c-4.269531 0-7.683594 3.789063-7.019531 8.003906 1.824218 11.636719 7.601562 21.9375 15.875 29.582032 6.988281-9.175782 19.140624-15.265625 32.996093-15.265625zm0 0" fill="#ddd"/><path d="m216.933594 246.351562c-.335938 0-.675782-.027343-1.015625-.074218-1.917969-.292969-3.625-1.378906-4.691407-3.007813-5.683593-8.652343-16.648437-14.027343-28.613281-14.027343-11.269531 0-21.574219 4.703124-27.5625 12.574218-1.167969 1.53125-2.925781 2.5-4.84375 2.667969-1.941406.199219-3.8125-.480469-5.222656-1.789063-9.597656-8.871093-15.984375-20.785156-17.984375-33.539062-.621094-3.925781.523438-7.933594 3.132812-10.988281 2.664063-3.113281 6.535157-4.898438 10.628907-4.898438h87.121093c4.085938 0 7.960938 1.785157 10.625 4.898438 2.609376 3.054687 3.753907 7.0625 3.132813 10.988281-2.179687 13.90625-9.410156 26.558594-20.351563 35.625-1.234374 1.023438-2.777343 1.570312-4.355468 1.570312zm-34.320313-30.761718c13.519531 0 26.25 5.1875 34.910157 13.902344 5.605468-6.3125 9.316406-14.085938 10.628906-22.453126l-87.390625-.113281c.96875 7.605469 4.101562 14.757813 8.859375 20.753907 8.585937-7.667969 20.414062-12.089844 32.992187-12.089844zm0 0"/><path d="m216.933594 239.523438c-6.703125-10.199219-19.550782-17.105469-34.320313-17.105469-13.855469 0-26.007812 6.089843-32.996093 15.265625 9.128906 8.429687 21.296874 13.617187 34.703124 13.617187 12.402344-.003906 23.753907-4.4375 32.613282-11.777343zm0 0" fill="#f97da3"/><path d="m184.320312 258.125c-14.59375 0-28.558593-5.480469-39.332031-15.425781-2.589843-2.386719-2.9375-6.347657-.804687-9.148438 8.558594-11.246093 22.925781-17.957031 38.429687-17.957031 16.511719 0 31.847657 7.730469 40.027344 20.183594 1.910156 2.90625 1.324219 6.789062-1.355469 9.007812-10.390625 8.597656-23.523437 13.339844-36.964844 13.339844zm-24.59375-21.132812c13.820313 9.261718 32.851563 9.777343 47.21875 1.246093-6.089843-5.652343-14.902343-8.996093-24.332031-8.996093-8.726562 0-16.875 2.824218-22.886719 7.75zm0 0"/><path d="m327.679688 230.816406c0-9.425781-13.753907-17.066406-30.71875-17.066406-16.96875 0-30.722657 7.640625-30.722657 17.066406 0 9.425782 13.753907 17.066406 30.722657 17.066406 16.964843 0 30.71875-7.640624 30.71875-17.066406zm0 0" fill="#f97da3"/><path d="m296.960938 254.710938c-21.40625 0-37.546876-10.273438-37.546876-23.894532 0-13.617187 16.140626-23.890625 37.546876-23.890625s37.546874 10.273438 37.546874 23.890625c0 13.621094-16.140624 23.894532-37.546874 23.894532zm0-34.132813c-14.363282 0-23.894532 6.160156-23.894532 10.238281 0 4.082032 9.53125 10.242188 23.894532 10.242188 14.363281 0 23.890624-6.160156 23.890624-10.242188 0-4.078125-9.527343-10.238281-23.890624-10.238281zm0 0"/><path d="m102.398438 230.816406c0-9.425781-13.753907-17.066406-30.71875-17.066406-16.964844 0-30.71875 7.640625-30.71875 17.066406 0 9.425782 13.753906 17.066406 30.71875 17.066406 16.964843 0 30.71875-7.640624 30.71875-17.066406zm0 0" fill="#f97da3"/><path d="m71.679688 254.710938c-21.40625 0-37.546876-10.273438-37.546876-23.894532 0-13.617187 16.140626-23.890625 37.546876-23.890625s37.546874 10.273438 37.546874 23.890625c0 13.621094-16.140624 23.894532-37.546874 23.894532zm0-34.132813c-14.363282 0-23.894532 6.160156-23.894532 10.238281 0 4.082032 9.53125 10.242188 23.894532 10.242188 14.363281 0 23.894531-6.160156 23.894531-10.242188 0-4.078125-9.53125-10.238281-23.894531-10.238281zm0 0"/><path d="m389.121094 62.773438c-1.746094 0-3.496094-.667969-4.828125-2l-24.324219-24.328126c-1.277344-1.28125-2-3.015624-2-4.828124s.722656-3.546876 2-4.824219l24.324219-24.320313c2.667969-2.667968 6.988281-2.667968 9.652343 0 2.667969 2.664063 2.667969 6.988282 0 9.652344l-19.496093 19.492188 19.496093 19.5c2.667969 2.667968 2.667969 6.988281 0 9.65625-1.332031 1.332031-3.078124 2-4.824218 2zm0 0"/><path d="m317.539062 62.773438c-1.746093 0-3.492187-.667969-4.824218-2-2.667969-2.667969-2.667969-6.988282 0-9.65625l19.496094-19.5-19.5-19.492188c-2.664063-2.664062-2.664063-6.988281 0-9.652344 2.667968-2.667968 6.988281-2.667968 9.65625 0l24.320312 24.320313c1.28125 1.277343 2 3.011719 2 4.824219s-.71875 3.546874-2 4.828124l-24.320312 24.328126c-1.335938 1.332031-3.082032 2-4.828126 2zm0 0"/></svg>