<?xml version="1.0" encoding="iso-8859-1"?>
<!-- Generator: Adobe Illustrator 19.0.0, SVG Export Plug-In . SVG Version: 6.00 Build 0)  -->
<svg version="1.1" id="Capa_1" xmlns="http://www.w3.org/2000/svg" xmlns:xlink="http://www.w3.org/1999/xlink" x="0px" y="0px"
	 viewBox="0 0 512 512" style="enable-background:new 0 0 512 512;" xml:space="preserve">
<path style="fill:#FFCD38;" d="M20.252,264.769c10.559-4.969,27.572-14.906,36.636-30.478C26.285,211.362,7.5,180.338,7.5,146.184
	c0-70.593,80.247-127.82,179.236-127.82s179.236,57.227,179.236,127.82s-80.247,127.82-179.236,127.82
	c-27.086,0-52.761-4.293-75.78-11.963c-10.932,8.487-42.154,27.074-90.326,10.276C17.187,271.116,16.954,266.322,20.252,264.769z"/>
<path style="fill:#E7B835;" d="M345.971,124.325c0-18.671-4.924-36.521-13.883-52.932c21.313,21.029,33.883,46.861,33.883,74.791
	c0,70.593-80.247,127.819-179.236,127.819c-14.87,0-29.31-1.301-43.123-3.737C255.582,269.379,345.971,204.386,345.971,124.325z"/>
<path style="fill:#49C3E0;" d="M491.747,479.295c-10.559-4.969-27.572-14.906-36.636-30.478
	c30.603-22.929,49.388-53.954,49.388-88.108c0-70.593-80.247-127.82-179.236-127.82s-179.236,57.227-179.236,127.82
	s80.247,127.82,179.236,127.82c27.086,0,52.761-4.293,75.78-11.963c10.932,8.487,42.154,27.074,90.326,10.276
	C494.813,485.641,495.046,480.847,491.747,479.295z"/>
<path style="fill:#00A5C6;" d="M166.028,338.851c0-18.671,4.924-36.521,13.883-52.932c-21.313,21.029-33.883,46.861-33.883,74.791
	c0,70.593,80.247,127.819,179.236,127.819c14.87,0,29.31-1.301,43.123-3.737C256.417,483.905,166.028,418.911,166.028,338.851z"/>
<path d="M279.529,362.945v-9.635c0-4.142-3.358-7.5-7.5-7.5s-7.5,3.358-7.5,7.5v9.635c0,4.142,3.358,7.5,7.5,7.5
	S279.529,367.088,279.529,362.945z"/>
<path d="M385.999,362.945v-9.635c0-4.142-3.358-7.5-7.5-7.5s-7.5,3.358-7.5,7.5v9.635c0,4.142,3.358,7.5,7.5,7.5
	S385.999,367.088,385.999,362.945z"/>
<path d="M325.264,375.588c7.285,0,14.132-3.053,18.786-8.377c2.727-3.119,2.408-7.857-0.71-10.583
	c-3.119-2.727-7.857-2.408-10.583,0.711c-1.805,2.064-4.536,3.249-7.493,3.249s-5.688-1.185-7.493-3.249
	c-2.726-3.119-7.463-3.438-10.583-0.711c-3.119,2.726-3.437,7.464-0.71,10.583C311.132,372.534,317.979,375.588,325.264,375.588z"/>
<path d="M232.471,138.785v9.635c0,4.142,3.358,7.5,7.5,7.5s7.5-3.358,7.5-7.5v-9.635c0-4.142-3.358-7.5-7.5-7.5
	S232.471,134.643,232.471,138.785z"/>
<path d="M126.001,138.785v9.635c0,4.142,3.358,7.5,7.5,7.5s7.5-3.358,7.5-7.5v-9.635c0-4.142-3.358-7.5-7.5-7.5
	S126.001,134.643,126.001,138.785z"/>
<path d="M194.229,142.814c-1.806,2.064-4.536,3.249-7.493,3.249s-5.688-1.185-7.493-3.249c-2.726-3.119-7.463-3.438-10.583-0.711
	c-3.119,2.726-3.437,7.464-0.71,10.583c4.653,5.324,11.501,8.377,18.786,8.377s14.132-3.054,18.786-8.377
	c2.727-3.119,2.408-7.856-0.71-10.583C201.691,139.376,196.954,139.695,194.229,142.814z"/>
<path d="M46.749,235.866c-8.729,11.093-21.945,18.462-29.689,22.107c-4.277,2.013-6.882,6.367-6.636,11.093
	c0.246,4.716,3.282,8.768,7.736,10.321c14.97,5.221,28.44,7.235,40.319,7.234c25.763-0.001,44.034-9.478,53.816-16.275
	c19.637,6.177,40.326,9.8,61.698,10.831c-23.03,22.924-35.464,50.477-35.464,79.521c0,39.122,23.245,76.279,63.775,101.942
	c3.5,2.216,8.133,1.175,10.349-2.324c2.216-3.5,1.175-8.133-2.325-10.349c-36.097-22.856-56.8-55.394-56.8-89.269
	c0-30.942,16.762-59.19,44.252-80.531c0.174-0.112,0.355-0.212,0.52-0.339c35.932-27.639,82.135-39.45,126.964-39.45
	c94.695,0,171.735,53.975,171.735,120.32c0,30.535-16.473,59.694-46.385,82.105c-3.046,2.283-3.9,6.485-1.985,9.775
	c7.934,13.631,20.912,23.266,32.39,29.636c-40.029,11.079-65.794-4.147-75.376-11.585c-1.978-1.536-4.594-1.983-6.97-1.191
	c-23.057,7.683-47.755,11.578-73.409,11.578c-31.08,0-61.552-5.917-88.122-17.113c-3.816-1.608-8.215,0.182-9.824,4
	c-1.608,3.817,0.183,8.215,4,9.824c28.397,11.965,60.884,18.29,93.946,18.29c25.902,0,50.924-3.748,74.44-11.146
	c9.783,6.797,28.048,16.276,53.816,16.275c11.877,0,25.353-2.015,40.32-7.234c4.453-1.553,7.489-5.604,7.735-10.321
	c0.247-4.726-2.358-9.081-6.635-11.094c-7.744-3.644-20.961-11.015-29.689-22.107C495.46,425.67,512,394.053,512,360.699
	c0-36.633-19.761-70.9-55.642-96.488c-32.089-22.884-73.737-36.365-118.394-38.519c23.027-22.97,35.508-50.642,35.508-79.518
	c0-32.113-15.706-63.213-44.226-87.571c-3.15-2.69-7.884-2.317-10.574,0.832c-2.689,3.15-2.317,7.884,0.833,10.574
	c25.128,21.462,38.967,48.511,38.967,76.165c0,29.251-15.206,57.362-42.877,79.386c-40.833,1.496-82.161,12.489-116.425,35.214
	c-1.432,0.95-6.435,5.674-8.058,5.674c-1.564,0.031-3.01,0.046-4.375,0.046c-25.654,0-50.353-3.896-73.409-11.578
	c-2.377-0.792-4.992-0.345-6.97,1.191c-9.582,7.438-35.347,22.663-75.376,11.585c11.478-6.37,24.455-16.005,32.39-29.636
	c1.915-3.29,1.062-7.493-1.984-9.775C31.473,205.868,15,176.709,15,146.174c0-66.345,77.04-120.32,171.735-120.32
	c39.653,0,78.367,9.754,109.012,27.466c3.585,2.073,8.173,0.846,10.246-2.741c2.073-3.586,0.846-8.174-2.74-10.246
	c-33.367-19.286-73.658-29.479-116.518-29.479c-49.423,0-95.979,13.791-131.093,38.832C19.761,75.274,0,109.541,0,146.174
	C0,179.527,16.539,211.144,46.749,235.866z"/>
<g>
</g>
<g>
</g>
<g>
</g>
<g>
</g>
<g>
</g>
<g>
</g>
<g>
</g>
<g>
</g>
<g>
</g>
<g>
</g>
<g>
</g>
<g>
</g>
<g>
</g>
<g>
</g>
<g>
</g>
</svg>
