<svg height="496pt" viewBox="0 0 496 496" width="496pt" xmlns="http://www.w3.org/2000/svg"><path d="m248 248c-8.824219 0-16-7.175781-16-16h-16c0 17.648438 14.351562 32 32 32s32-14.351562 32-32h-16c0 8.824219-7.175781 16-16 16zm0 0"/><path d="m216 176c0 4.417969-3.582031 8-8 8s-8-3.582031-8-8 3.582031-8 8-8 8 3.582031 8 8zm0 0"/><path d="m296 176c0 4.417969-3.582031 8-8 8s-8-3.582031-8-8 3.582031-8 8-8 8 3.582031 8 8zm0 0"/><path d="m208 440h16v16h-16zm0 0"/><path d="m272 440h16v16h-16zm0 0"/><path d="m248 0c-136.753906 0-248 111.257812-248 248s111.246094 248 248 248 248-111.257812 248-248-111.246094-248-248-248zm30.777344 20.65625c6 1.863281 11.734375 4.304688 17.222656 7.175781v36.167969h16v-25.808594c20.558594 16.121094 34.855469 39.777344 38.792969 66.800782l-78.359375-20.894532zm57.222656 148.152344v-24.808594h16v32.207031c-4.671875-3.542969-10.054688-6.183593-16-7.398437zm16 39.191406c0 10.921875-7.375 20.054688-17.367188 22.953125.839844-4.875 1.367188-9.847656 1.367188-14.953125v-30.527344c9.289062 3.3125 16 12.113282 16 22.527344zm-222.953125-80c-.574219 0-1.046875-.472656-1.046875-1.046875 0-.480469.320312-.898437.785156-1.015625l105.558594-28.152344c4.441406-1.183594 9.03125-1.785156 13.65625-1.785156s9.214844.601562 13.664062 1.792969l105.550782 28.144531c.464844.117188.785156.542969.785156 1.015625 0 .574219-.472656 1.046875-1.046875 1.046875zm151.785156 152h-.832031v.398438c-9.65625 4.824218-20.496094 7.601562-32 7.601562s-22.34375-2.777344-32-7.601562v-.398438h-.832031c-23.222657-11.960938-39.167969-36.136719-39.167969-64v-4.671875c5.367188 2.96875 11.464844 4.671875 17.886719 4.671875h26.121093c9.863282 0 19.144532-3.839844 26.128907-10.824219l1.863281-1.863281 1.863281 1.871094c6.984375 6.976562 16.265625 10.816406 26.128907 10.816406h26.121093c6.429688 0 12.519531-1.703125 17.886719-4.671875v4.671875c0 27.863281-15.945312 52.039062-39.167969 64zm9.625 48.855469 33.101563 8.273437-22.871094 22.871094h-20.6875v28.6875l-24 24v-49.375zm11.65625-128.855469h-26.121093c-5.59375 0-10.847657-2.175781-14.816407-6.136719l-13.175781-13.175781-13.175781 13.175781c-3.96875 3.960938-9.222657 6.136719-14.816407 6.136719h-26.121093c-7.472657 0-14.125-3.992188-17.886719-10.351562v-45.648438h144v45.648438c-3.761719 6.359374-10.414062 10.351562-17.886719 10.351562zm-142.113281-14.527344v30.527344c0 5.105469.527344 10.078125 1.367188 14.953125-9.992188-2.898437-17.367188-12.03125-17.367188-22.953125 0-10.414062 6.710938-19.214844 16-22.527344zm-16-9.265625v-32.207031h16v24.808594c-5.945312 1.214844-11.328125 3.855468-16 7.398437zm104-160.207031c5.121094 0 10.113281.496094 15.039062 1.214844l-6.335937 63.359375c-5.765625-.726563-11.640625-.726563-17.40625 0l-6.335937-63.359375c4.925781-.71875 9.917968-1.214844 15.039062-1.214844zm-64 22.191406v25.808594h16v-36.167969c5.488281-2.871093 11.222656-5.3125 17.222656-7.175781l6.34375 63.449219-78.359375 20.894531c3.9375-27.023438 18.234375-50.679688 38.792969-66.808594zm-112 351.289063v9.421875c-34.863281-40.605469-56-93.316406-56-150.902344 0-100.214844 63.878906-185.785156 153.054688-218.152344-22.613282 19.832032-37.742188 47.9375-40.519532 79.59375l-3.878906 1.03125c-7.457031 2-12.65625 8.765625-12.65625 16.480469 0 9.039063 7.097656 16.390625 16 16.941406v64.105469c0 21.382812 16.910156 38.753906 38.039062 39.800781 6.714844 17.246094 18.671876 31.863281 33.960938 41.855469v24.097656l-85.574219 21.390625c-24.976562 6.246094-42.425781 28.589844-42.425781 54.335938zm168 90.320312c-34.414062-1.175781-66.945312-9.871093-96-24.511719v-71.289062h-16v62.488281c-14.457031-8.769531-27.832031-19.121093-40-30.726562v-26.28125c0-18.382813 12.464844-34.34375 30.296875-38.808594l36.046875-9.015625 34.34375 34.34375h11.3125v19.3125l40 40zm0-67.113281-24-24v-28.6875h-20.6875l-22.863281-22.863281 33.101562-8.273438 34.449219 34.449219zm-24-96v-18.800781c9.9375 3.898437 20.703125 6.113281 32 6.113281s22.0625-2.214844 32-6.113281v18.800781l-32 32zm192 99.074219c-12.167969 11.605469-25.542969 21.957031-40 30.726562v-62.488281h-16v71.289062c-29.054688 14.640626-61.585938 23.335938-96 24.511719v-44.488281l40-40v-19.3125h11.3125l34.34375-34.34375 36.046875 9.015625c17.832031 4.464844 30.296875 20.417969 30.296875 38.808594zm-26.425781-80.609375-85.574219-21.398438v-24.097656c15.289062-10 27.246094-24.617188 33.960938-41.855469 21.128906-1.046875 38.039062-18.417969 38.039062-39.800781v-64.105469c8.902344-.550781 16-7.902343 16-16.941406 0-7.714844-5.199219-14.488281-12.65625-16.480469l-3.878906-1.03125c-2.777344-31.664062-17.914063-59.769531-40.519532-79.59375 89.175782 32.367188 153.054688 117.9375 153.054688 218.152344 0 57.585938-21.136719 110.296875-56 150.894531v-9.421875c0-25.738281-17.449219-48.082031-42.425781-54.320312zm0 0"/></svg>