<svg height="503pt" viewBox="0 0 503 503.90767" width="503pt" xmlns="http://www.w3.org/2000/svg"><path d="m56.40625 392.566406-41.511719-11.199218c-12.808593-3.4375-18.089843-25.191407-11.769531-48.71875 6.238281-23.441407 21.769531-39.679688 34.558594-36.242188l82.722656 22.320312 369.519531 99.769532-22.808593 84.960937zm0 0" fill="#844747"/><path d="m14.894531 418.488281c12.796875-3.449219 28.3125 12.800781 34.550781 36.230469 6.320313 23.519531 1.039063 45.28125-11.761718 48.730469-12.796875 3.4375-28.320313-12.808594-34.558594-36.242188-6.320312-23.519531-1.039062-45.277343 11.769531-48.71875zm0 0" fill="#ffd2a6"/><path d="m489.925781 418.488281c12.800781 3.441407 18.078125 25.191407 11.757813 48.71875-6.238282 23.441407-21.757813 39.679688-34.558594 36.242188-12.800781-3.449219-18.078125-25.203125-11.761719-48.730469 6.242188-23.429688 21.761719-39.671875 34.5625-36.230469zm0 0" fill="#ffd2a6"/><path d="m19.15625 434.375c-.375.648438-1.136719 2.066406-1.765625 4.703125-1.585937 6.539063-1.152344 15.273437 1.183594 23.976563 4.109375 15.441406 11.933593 22.953124 14.863281 24.554687 1.710938-2.890625 4.671875-13.394531.550781-28.730469-4.078125-15.367187-11.839843-22.847656-14.832031-24.503906zm0 0" fill="#f7c292"/><path d="m487.421875 439.078125c-.5625-2.351563-1.234375-3.773437-1.71875-4.574219-3.195313 1.734375-10.785156 8.976563-14.875 24.34375-4.117187 15.335938-1.175781 25.832032.527344 28.746094 2.976562-1.625 10.769531-9.105469 14.867187-24.496094 2.351563-8.730468 2.78125-17.480468 1.199219-24.019531zm0 0" fill="#f7c292"/><path d="m444.726562 393.609375-113.363281 30.558594-54.71875 14.800781-238.960937 64.488281c12.800781-3.449219 18.082031-25.199219 11.761718-48.730469-6.238281-23.4375-21.761718-39.679687-34.550781-36.230468l45.191407-12.238282 116.398437-31.363281 208-56.167969 82.640625-22.320312c12.808594-3.4375 28.320312 12.808594 34.558594 36.242188 6.320312 23.519531 1.042968 45.28125-11.757813 48.71875zm0 0" fill="#965353"/><path d="m296.726562 190.246094s33.917969 25.761718 33.917969 80.800781c0 42.960937-34.960937 77.839844-78.167969 77.839844-43.207031 0-78.160156-34.808594-78.160156-77.839844 0-85.4375 66.722656-132.078125 66.722656-132.078125s9.359376 59.597656 20.957032 71.121094c11.527344 11.519531 34.730468-19.84375 34.730468-19.84375zm0 0" fill="#ffce54"/><path d="m392.484375 236.488281c0 28.871094-8.800781 55.679688-23.917969 78-25.121094 37.039063-67.761718 61.441407-116.082031 61.441407-24.160156 0-46.871094-6.082032-66.71875-16.800782-21.839844-11.839844-40.160156-29.199218-53.039063-50.242187-12.808593-21.117188-20.242187-45.917969-20.242187-72.398438 0-150.558593 143.6875-233.921875 148.167969-236.488281-.320313 1.601562-11.519532 49.601562 8.871094 69.921875 20.730468 20.636719 47.839843-6.800781 47.839843-6.800781s75.121094 74.808594 75.121094 173.367187zm-61.839844 34.558594c0-55.039063-33.917969-80.800781-33.917969-80.800781s-23.203124 31.363281-34.722656 19.832031c-11.597656-11.511719-20.957031-71.117187-20.957031-71.117187s-66.722656 46.640624-66.722656 132.078124c0 43.039063 34.953125 77.839844 78.160156 77.839844s78.160156-34.871094 78.160156-77.832031zm0 0" fill="#fc6e51"/><path d="m104.484375 385.046875c-.351563 0-.703125-.046875-1.0625-.144531-26.730469-7.367188-52.496094-14.558594-52.496094-14.558594-2.128906-.589844-3.367187-2.800781-2.777343-4.929688.59375-2.117187 2.800781-3.375 4.929687-2.773437 0 0 25.75 7.191406 52.464844 14.542969 2.132812.585937 3.382812 2.792968 2.796875 4.921875-.488282 1.773437-2.101563 2.941406-3.855469 2.941406zm0 0" fill="#773e3e"/><g fill="#844747"><path d="m92.003906 426.648438c-1.765625 0-3.382812-1.175782-3.863281-2.960938-.566406-2.144531.695313-4.328125 2.832031-4.902344l114.550782-30.722656c2.167968-.527344 4.328124.707031 4.90625 2.832031.566406 2.144531-.695313 4.328125-2.832032 4.90625l-114.550781 30.71875c-.355469.082031-.699219.128907-1.042969.128907zm0 0"/><path d="m456.652344 365.414062c-.589844-2.125-2.792969-3.398437-4.925782-2.773437-.816406.222656-81.601562 22.785156-104.441406 28.863281-8.015625 2.160156-13.832031 6.304688-17.273437 12.34375-5.574219 9.769532-2.671875 20.792969-2.503907 21.367188l3.855469-1.046875 3.851563-1.039063s0-.023437 0-.03125c-.019532-.082031-2.167969-8.441406 1.742187-15.28125 2.351563-4.121094 6.519531-7.007812 12.398438-8.585937 22.875-6.09375 103.714843-28.664063 104.523437-28.886719 2.125-.589844 3.367188-2.800781 2.773438-4.929688zm0 0"/></g></svg>