<svg id="live" enable-background="new 0 0 300 300" height="512" viewBox="0 0 300 300" width="512" xmlns="http://www.w3.org/2000/svg"><g><circle cx="160" cy="180" fill="#d2ddff" r="86"/><g fill="#4c241d"><circle cx="144" cy="260" r="4.529"/><path d="m190.652 247.348c-1.023 0-2.047-.391-2.828-1.172-1.562-1.562-1.562-4.094 0-5.656l14.695-14.695c1.562-1.562 4.094-1.562 5.656 0s1.562 4.094 0 5.656l-14.695 14.695c-.781.781-1.804 1.172-2.828 1.172z"/><path d="m205.348 247.348c-1.023 0-2.047-.391-2.828-1.172l-14.695-14.695c-1.562-1.562-1.562-4.094 0-5.656s4.094-1.562 5.656 0l14.695 14.695c1.562 1.562 1.562 4.094 0 5.656-.781.781-1.805 1.172-2.828 1.172z"/></g><g><path d="m46 82h179.975v128h-179.975z" fill="#ffce56"/><path d="m225.975 214h-179.975c-2.209 0-4-1.789-4-4v-128c0-2.211 1.791-4 4-4h179.975c2.209 0 4 1.789 4 4v128c0 2.211-1.791 4-4 4zm-175.975-8h171.975v-120h-171.975z" fill="#4c241d"/></g><g><path d="m226 210h30.095c3.261 0 5.905-2.623 5.905-5.884-.001-21.385-.003-94.849-.007-116.233 0-3.261-2.644-5.883-5.905-5.883h-30.088z" fill="#fff"/><path d="m256.096 214h-30.096c-2.209 0-4-1.789-4-4v-128c0-2.211 1.791-4 4-4h30.088c5.459 0 9.902 4.434 9.906 9.879l.006 116.238c0 5.449-4.443 9.883-9.904 9.883zm-26.096-8h26.096c1.051 0 1.904-.844 1.904-1.883l-.006-116.234c0-1.035-.855-1.883-1.906-1.883h-26.088z" fill="#4c241d"/></g><circle cx="244" cy="148" fill="#4c241d" r="10"/><g><path d="m50 210h-18.095c-3.261 0-5.905-2.644-5.905-5.905v-116.19c0-3.261 2.644-5.905 5.905-5.905h18.095z" fill="#fff"/><path d="m50 214h-18.096c-5.461 0-9.904-4.445-9.904-9.906v-116.188c0-5.461 4.443-9.906 9.904-9.906h18.096c2.209 0 4 1.789 4 4v128c0 2.211-1.791 4-4 4zm-18.096-128c-1.05 0-1.904.855-1.904 1.906v116.188c0 1.051.854 1.906 1.904 1.906h14.096v-120z" fill="#4c241d"/></g><path d="m38 154c-2.209 0-4-1.789-4-4v-16c0-2.211 1.791-4 4-4s4 1.789 4 4v16c0 2.211-1.791 4-4 4z" fill="#4c241d"/><g><path d="m264.896 102h-185.792c-5.028 0-9.104-4.076-9.104-9.104v-45.792c0-5.028 4.076-9.104 9.104-9.104h185.793c5.028 0 9.104 4.076 9.104 9.104v45.793c-.001 5.027-4.077 9.103-9.105 9.103z" fill="#e66353"/><path d="m264.896 106h-185.792c-7.225 0-13.104-5.879-13.104-13.105v-45.79c0-7.226 5.879-13.105 13.104-13.105h185.793c7.224 0 13.103 5.879 13.103 13.105v45.789c0 7.227-5.879 13.106-13.104 13.106zm-185.792-64c-2.815 0-5.104 2.289-5.104 5.105v45.789c0 2.817 2.289 5.106 5.104 5.106h185.793c2.814 0 5.104-2.289 5.104-5.105v-45.79c0-2.816-2.289-5.105-5.104-5.105z" fill="#4c241d"/></g><g><path d="m90 82.108v-28.216c0-1.741 1.875-2.838 3.393-1.984l25.08 14.108c1.547.87 1.547 3.098 0 3.968l-25.08 14.108c-1.518.853-3.393-.243-3.393-1.984z" fill="#fff"/><path d="m92.275 88.395c-1.09 0-2.178-.289-3.166-.867-1.947-1.141-3.109-3.165-3.109-5.419v-28.218c0-2.254 1.162-4.277 3.109-5.418 1.949-1.133 4.283-1.156 6.248-.047l25.076 14.102c1.975 1.113 3.199 3.211 3.199 5.473s-1.225 4.359-3.197 5.469l-25.081 14.108c-.965.543-2.022.817-3.079.817zm1.725-31.555v22.32l19.842-11.16z" fill="#4c241d"/></g><g><path d="m150 54v32h16" fill="#e66353"/><path d="m166 90h-16c-2.209 0-4-1.789-4-4v-32c0-2.211 1.791-4 4-4s4 1.789 4 4v28h12c2.209 0 4 1.789 4 4s-1.791 4-4 4z" fill="#4c241d"/></g><path d="m178 90c-2.209 0-4-1.789-4-4v-32c0-2.211 1.791-4 4-4s4 1.789 4 4v32c0 2.211-1.791 4-4 4z" fill="#4c241d"/><g><path d="m190 54 12 32 12-32" fill="#e66353"/><path d="m202 90c-1.668 0-3.16-1.035-3.746-2.594l-12-32c-.775-2.07.273-4.375 2.342-5.152 2.066-.766 4.375.273 5.15 2.34l8.254 22.015 8.254-22.016c.777-2.066 3.084-3.105 5.15-2.34 2.068.777 3.117 3.082 2.342 5.152l-12 32c-.586 1.56-2.078 2.595-3.746 2.595z" fill="#4c241d"/></g><g><path d="m242 54h-16v32h16" fill="#e66353"/><path d="m242 90h-16c-2.209 0-4-1.789-4-4v-32c0-2.211 1.791-4 4-4h16c2.209 0 4 1.789 4 4s-1.791 4-4 4h-12v24h12c2.209 0 4 1.789 4 4s-1.791 4-4 4z" fill="#4c241d"/></g><path d="m242 74h-12c-2.209 0-4-1.789-4-4s1.791-4 4-4h12c2.209 0 4 1.789 4 4s-1.791 4-4 4z" fill="#4c241d"/><g><path d="m178 210h-72v-7.305c0-7.011 5.684-12.695 12.695-12.695h46.61c7.011 0 12.695 5.684 12.695 12.695z" fill="#9dc1e4"/><path d="m178 214h-72c-2.209 0-4-1.789-4-4v-7.305c0-9.207 7.49-16.695 16.695-16.695h46.609c9.205 0 16.695 7.488 16.695 16.695v7.305c.001 2.211-1.79 4-3.999 4zm-68-8h64v-3.305c0-4.793-3.9-8.695-8.695-8.695h-46.609c-4.795 0-8.695 3.902-8.695 8.695v3.305z" fill="#4c241d"/></g><g><path d="m134 190h16v20h-16z" fill="#fff"/><path d="m150 214h-16c-2.209 0-4-1.789-4-4v-20c0-2.211 1.791-4 4-4h16c2.209 0 4 1.789 4 4v20c0 2.211-1.791 4-4 4zm-12-8h8v-12h-8z" fill="#4c241d"/></g><g><path d="m142 198c-4.418 0-8-3.582-8-8v-17.628h16v17.628c0 4.418-3.582 8-8 8z" fill="#e7d1c4"/><path d="m142 202c-6.617 0-12-5.383-12-12v-17.629c0-2.211 1.791-4 4-4h16c2.209 0 4 1.789 4 4v17.629c0 6.617-5.383 12-12 12zm-4-25.629v13.629c0 2.207 1.795 4 4 4s4-1.793 4-4v-13.629z" fill="#4c241d"/></g><g><path d="m142 182c-13.255 0-24-10.745-24-24v-21.55h48v21.55c0 13.255-10.745 24-24 24z" fill="#e7d1c4"/><path d="m142 186c-15.439 0-28-12.562-28-28v-21.551c0-2.211 1.791-4 4-4h48c2.209 0 4 1.789 4 4v21.551c0 15.438-12.561 28-28 28zm-20-45.551v17.551c0 11.027 8.973 20 20 20s20-8.973 20-20v-17.551z" fill="#4c241d"/></g><g><path d="m118 149.897 8.727-9.113s13.091 9.113 30.545 0l8.727 9.113v-11.053c0-7.674-6.153-13.896-13.743-13.896 0-3.837-3.076-6.948-6.871-6.948h-13.644c-7.59 0-13.743 6.221-13.743 13.896v18.001z" fill="#b5a19c"/><path d="m166 153.898c-1.07 0-2.119-.43-2.889-1.234l-6.725-7.02c-13.188 5.766-23.879 2.461-28.887.117l-6.611 6.902c-1.131 1.18-2.869 1.555-4.379.945-1.516-.609-2.51-2.078-2.51-3.711v-18.004c0-9.867 7.959-17.895 17.742-17.895h13.645c4.715 0 8.738 3.039 10.24 7.273 8.178 1.59 14.373 8.863 14.373 17.57v11.055c0 1.633-.994 3.102-2.51 3.711-.481.198-.987.291-1.489.291zm-39.271-17.113c.793 0 1.592.234 2.283.719.439.293 11.453 7.543 26.41-.266 1.578-.82 3.512-.504 4.74.781l1.838 1.918v-1.094c0-5.457-4.371-9.895-9.742-9.895-2.209 0-4-1.789-4-4 0-1.625-1.287-2.949-2.871-2.949h-13.645c-5.371 0-9.742 4.438-9.742 9.895v8.043l1.838-1.918c.779-.812 1.83-1.234 2.891-1.234z" fill="#4c241d"/></g><path d="m96.004 250c-.01 0-.02 0-.029 0-7.719-.016-13.988-6.309-13.975-14.027.006-3.738 1.469-7.254 4.119-9.891 2.65-2.641 6.178-4.242 9.906-4.082 7.719.016 13.988 6.309 13.975 14.027-.006 3.738-1.469 7.254-4.119 9.891-2.643 2.633-6.149 4.082-9.877 4.082zm-.008-20c-1.598 0-3.1.621-4.23 1.75-1.137 1.129-1.764 2.637-1.766 4.238-.006 3.309 2.682 6.004 5.99 6.012h.014c1.598 0 3.1-.621 4.23-1.75 1.137-1.129 1.764-2.637 1.766-4.238.006-3.309-2.682-6.004-5.99-6.012-.006 0-.01 0-.014 0z" fill="#4c241d"/></g></svg>