<svg height="512" viewBox="0 0 512 512" width="512" xmlns="http://www.w3.org/2000/svg"><g id="filled_outline" data-name="filled outline"><g fill="#6cbbc7"><path d="m24 64a16 16 0 0 0 16 16h40v-32h-40a16 16 0 0 0 -16 16z"/><path d="m24 128a16 16 0 0 0 16 16h40v-32h-40a16 16 0 0 0 -16 16z"/><path d="m24 192a16 16 0 0 0 16 16h40v-32h-40a16 16 0 0 0 -16 16z"/><path d="m24 256a16 16 0 0 0 16 16h40v-32h-40a16 16 0 0 0 -16 16z"/><path d="m24 320a16 16 0 0 0 16 16h40v-32h-40a16 16 0 0 0 -16 16z"/><path d="m24 384a16 16 0 0 0 16 16h40v-32h-40a16 16 0 0 0 -16 16z"/><path d="m24 448a16 16 0 0 0 16 16h40v-32h-40a16 16 0 0 0 -16 16z"/></g><path d="m56 24h368v464h-368z" fill="#fadbb7"/><path d="m56 471.068v18.2h368v-281.268c-54.995 151.2-198.594 259.732-368 263.068z" fill="#f4c08e"/><path d="m344 128h-8v32h8l48-16z" fill="#fdb62f"/><path d="m213.825 376a130.175 130.175 0 0 0 130.175-130.175v-109.825a80 80 0 0 0 -80-80 80 80 0 0 0 -80 80v14.863a80 80 0 0 1 -23.431 56.568l-72.569 72.569 2.33 6.99a130.176 130.176 0 0 0 123.495 89.01z" fill="#ff5086"/><path d="m88 280v-120l48 16z" fill="#fdb62f"/><path d="m472 24a16 16 0 0 1 16 16v408l-16 40-16-40v-408a16 16 0 0 1 16-16z" fill="#f4c08e"/><path d="m456 64h32v-24a16 16 0 0 0 -16-16 16 16 0 0 0 -16 16z" fill="#fadbb7"/><path d="m456 64h32v376l-16-16-16 16z" fill="#ff421d"/><path d="m232 216a88 88 0 0 0 -48-78.4v13.267a80 80 0 0 1 -23.432 56.568l-72.568 72.565a87.643 87.643 0 0 0 56 20.115c48.6 0 88-35.515 88-84.115z" fill="#fdb62f"/><path d="m456 236.094v203.906l16-16 16 16v-271.271a398.051 398.051 0 0 1 -32 67.365z" fill="#bf3216"/><path d="m424 16h-368a8 8 0 0 0 -8 8v16h-8a24 24 0 0 0 0 48h8v16h-8a24 24 0 0 0 0 48h8v16h-8a24 24 0 0 0 0 48h8v16h-8a24 24 0 0 0 0 48h8v16h-8a24 24 0 0 0 0 48h8v16h-8a24 24 0 0 0 0 48h8v16h-8a24 24 0 0 0 0 48h8v16a8 8 0 0 0 8 8h368a8 8 0 0 0 8-8v-464a8 8 0 0 0 -8-8zm-384 56a8 8 0 0 1 0-16h8v16zm0 64a8 8 0 0 1 0-16h8v16zm0 64a8 8 0 0 1 0-16h8v16zm0 64a8 8 0 0 1 0-16h8v16zm0 64a8 8 0 0 1 0-16h8v16zm0 64a8 8 0 0 1 0-16h8v16zm0 64a8 8 0 0 1 0-16h8v16zm376 24h-352v-448h352z"/><path d="m80.406 282.527 2.336 6.993a137.979 137.979 0 0 0 109.258 92.754v24.437l-7.586 22.758 15.172 5.062 5.476-16.41 16.407 5.469 5.062-15.18-18.531-6.177v-18.464c1.942.081 3.87.231 5.828.231a137.235 137.235 0 0 0 50.172-9.57v16.281l-7.586 22.758 15.172 5.062 5.476-16.41 16.407 5.469 5.062-15.18-18.531-6.177v-19.157a138.276 138.276 0 0 0 72-121.252v-80.057l42.531-14.177a8 8 0 0 0 0-15.18l-43.782-14.594a87.946 87.946 0 0 0 -174.749 14.184v14.863a71.541 71.541 0 0 1 -21.086 50.91l-40.852 40.852 29.2-63.273a8 8 0 0 0 -4.735-10.942l-48-16a8 8 0 0 0 -10.527 7.59v120c0 .049.023.093.024.142a7.964 7.964 0 0 0 .382 2.385zm271.594-133.627v-9.8l14.7 4.9zm-88-84.9a72.081 72.081 0 0 1 72 72v109.824a122.123 122.123 0 0 1 -231.882 53.6 96.173 96.173 0 0 0 39.882 8.689c53.828 0 96-40.461 96-92.113a95.6 95.6 0 0 0 -47.847-83.024 72.029 72.029 0 0 1 71.847-68.976zm-97.773 149.086a87.386 87.386 0 0 0 25.713-61 79.558 79.558 0 0 1 32.06 63.914c0 43.391-34.391 76.113-80 76.113a80.148 80.148 0 0 1 -43.728-13.076zm-70.227-41.986 28.992 9.664-28.992 62.814z"/><path d="m472 16a24.027 24.027 0 0 0 -24 24v408a8.063 8.063 0 0 0 .57 2.973l16 40a8 8 0 0 0 14.86 0l16-40a8.063 8.063 0 0 0 .57-2.973v-408a24.027 24.027 0 0 0 -24-24zm8 404.687-2.344-2.343a8 8 0 0 0 -11.312 0l-2.344 2.343v-348.687h16zm-16-380.687a8 8 0 0 1 16 0v16h-16zm8 426.461-8-20v-3.149l8-8 8 8v3.149z"/><path d="m374.719 432.1a8 8 0 0 0 -5.875 4.32l-3.039 6.074-8.149-8.152a8 8 0 0 0 -12.812 2.078l-3.039 6.074-8.149-8.152a8 8 0 0 0 -12.812 2.078l-.844 1.693-8.844-17.691a8 8 0 0 0 -15 2.008l-8 40 15.688 3.14 3.429-17.136 5.571 11.144c2.718 5.422 11.594 5.422 14.312 0l3.044-6.078 8.149 8.152a8 8 0 0 0 12.812-2.078l3.039-6.074 8.149 8.152a8 8 0 0 0 12.812-2.078l3.039-6.074 8.149 8.152 11.312-11.312-16-16a8.051 8.051 0 0 0 -6.942-2.24z"/><circle cx="296" cy="127.997" r="8"/></g></svg>