<?xml version="1.0" encoding="iso-8859-1"?>
<!-- Generator: Adobe Illustrator 19.0.0, SVG Export Plug-In . SVG Version: 6.00 Build 0)  -->
<svg version="1.1" id="Capa_1" xmlns="http://www.w3.org/2000/svg" xmlns:xlink="http://www.w3.org/1999/xlink" x="0px" y="0px"
	 viewBox="0 0 512 512" style="enable-background:new 0 0 512 512;" xml:space="preserve">
<path style="fill:#FF9DC7;" d="M498.384,95.251l-81.635-81.635c-18.155-18.155-47.589-18.155-65.744,0l-24.53,24.53l58.246,89.132
	l89.132,58.246l24.53-24.53C516.539,142.84,516.539,113.406,498.384,95.251z"/>
<path style="fill:#E670A9;" d="M498.384,95.251l-36.422-36.422c18.155,18.155,18.155,47.589,0,65.744l-24.53,24.53l-67.105-43.852
	l14.395,22.027l89.132,58.246l24.53-24.53C516.539,142.84,516.539,113.406,498.384,95.251z"/>
<polygon style="fill:#D4D2D3;" points="295.589,69.033 257.168,107.454 315.414,196.587 404.546,254.832 442.968,216.411 
	384.722,127.278 "/>
<polygon style="fill:#BAB8B9;" points="384.722,127.278 362.694,112.884 418.405,191.848 379.983,230.269 301.019,174.558 
	315.414,196.587 404.547,254.832 442.968,216.411 "/>
<polygon style="fill:#3A484A;" points="69.865,442.135 10.221,421.314 22.505,489.495 90.686,501.779 "/>
<polygon style="fill:#323E40;" points="90.686,501.779 82.502,478.334 22.505,489.495 "/>
<polygon style="fill:#FFE5A6;" points="147.376,511.997 90.686,501.779 10.221,421.314 0.003,364.625 65.456,347.125 
	169.588,451.257 "/>
<path style="fill:#EFEDEE;" d="M442.968,216.411L295.589,69.033c-8.529-8.529-8.529-22.357,0-30.887
	c8.529-8.529,22.358-8.529,30.887,0l147.379,147.379c8.529,8.529,8.529,22.357,0,30.887
	C465.326,224.94,451.496,224.94,442.968,216.411z"/>
<path style="fill:#D4D2D3;" d="M473.854,185.525l-24.564-24.564c8.529,8.529,8.529,22.358,0,30.887
	c-8.529,8.529-22.357,8.529-30.887,0l24.564,24.564c8.529,8.529,22.358,8.529,30.887,0
	C482.383,207.883,482.383,194.053,473.854,185.525z"/>
<polygon style="fill:#E6CE95;" points="143.213,467.04 69.635,480.728 90.686,501.779 147.376,511.998 160.887,475.049 "/>
<polygon style="fill:#FFCC4A;" points="49.126,413.748 94.086,417.914 98.252,462.874 143.213,467.04 147.379,512 373.66,285.719 
	315.414,196.587 226.281,138.34 0,364.622 44.96,368.788 "/>
<g>
	<path style="fill:#3A484A;" d="M160.341,274c-1.978,0-3.955-0.754-5.464-2.263c-3.017-3.017-3.017-7.91,0.001-10.927l7.972-7.972
		c3.016-3.017,7.909-3.016,10.926,0c3.017,3.017,3.017,7.91-0.001,10.927l-7.972,7.972C164.296,273.245,162.318,274,160.341,274z"/>
	<path style="fill:#3A484A;" d="M245.727,359.385c-1.978,0-3.955-0.754-5.464-2.263c-3.017-3.017-3.017-7.91,0.001-10.927
		l7.972-7.972c3.017-3.017,7.91-3.016,10.926,0c3.017,3.017,3.017,7.91-0.001,10.927l-7.972,7.972
		C249.682,358.631,247.704,359.385,245.727,359.385z"/>
	<path style="fill:#3A484A;" d="M196.559,289.446l-8.65,8.65c-7.178,7.178-7.178,18.817,0,25.997l0,0
		c7.178,7.178,18.817,7.178,25.997,0l8.65-8.65L196.559,289.446z"/>
</g>
<polygon style="fill:#EAAE28;" points="143.213,467.04 147.379,512 373.66,285.719 354.244,256.008 "/>
<path style="fill:#EFEDEE;" d="M373.66,285.719L226.281,138.34c-8.529-8.529-8.529-22.357,0-30.887
	c8.529-8.529,22.357-8.529,30.887,0l147.379,147.379c8.529,8.529,8.529,22.357,0,30.887
	C396.017,294.249,382.189,294.249,373.66,285.719z"/>
<path style="fill:#D4D2D3;" d="M404.547,254.832l-24.564-24.564c8.529,8.529,8.529,22.358,0,30.887
	c-8.529,8.529-22.357,8.529-30.887,0l24.564,24.564c8.529,8.529,22.358,8.529,30.887,0
	C413.076,277.19,413.076,263.362,404.547,254.832z"/>
<g>
</g>
<g>
</g>
<g>
</g>
<g>
</g>
<g>
</g>
<g>
</g>
<g>
</g>
<g>
</g>
<g>
</g>
<g>
</g>
<g>
</g>
<g>
</g>
<g>
</g>
<g>
</g>
<g>
</g>
</svg>
