<?xml version="1.0" encoding="iso-8859-1"?>
<!-- Generator: Adobe Illustrator 19.0.0, SVG Export Plug-In . SVG Version: 6.00 Build 0)  -->
<svg version="1.1" id="Capa_1" xmlns="http://www.w3.org/2000/svg" xmlns:xlink="http://www.w3.org/1999/xlink" x="0px" y="0px"
	 viewBox="0 0 512 512" style="enable-background:new 0 0 512 512;" xml:space="preserve">
<path style="fill:#FF9DC7;" d="M491.295,99.952l-79.247-79.247c-17.624-17.624-46.197-17.624-63.821,0l-23.812,23.812l56.543,86.525
	l86.525,56.543l23.812-23.812C508.919,146.149,508.919,117.576,491.295,99.952z"/>
<path style="fill:#E670A9;" d="M491.295,99.952l-35.357-35.357c17.624,17.624,17.624,46.197,0,63.821l-23.812,23.812l-65.142-42.569
	l13.974,21.383l86.525,56.543l23.812-23.812C508.919,146.149,508.919,117.576,491.295,99.952z"/>
<polygon style="fill:#D4D2D3;" points="294.432,74.5 257.134,111.797 313.677,198.324 400.203,254.865 437.5,217.569 
	380.958,131.042 "/>
<polygon style="fill:#BAB8B9;" points="380.958,131.042 359.574,117.069 413.655,193.723 376.357,231.021 299.703,176.94 
	313.677,198.324 400.203,254.865 437.5,217.569 "/>
<polygon style="fill:#3A484A;" points="75.31,436.69 17.411,416.479 29.336,482.665 95.522,494.59 "/>
<polygon style="fill:#323E40;" points="95.522,494.59 87.577,471.831 29.336,482.665 "/>
<polygon style="fill:#FFE5A6;" points="150.554,504.509 95.522,494.59 17.411,416.479 7.491,361.447 71.03,344.459 172.116,445.545 
	"/>
<path style="fill:#EFEDEE;" d="M437.5,217.569L294.432,74.5c-8.279-8.279-8.279-21.703,0-29.984c8.279-8.28,21.703-8.279,29.984,0
	l143.068,143.068c8.279,8.279,8.279,21.703,0,29.984C459.204,225.848,445.78,225.848,437.5,217.569z"/>
<path style="fill:#D4D2D3;" d="M467.483,187.585l-23.845-23.845c8.279,8.279,8.279,21.704,0,29.984
	c-8.279,8.279-21.703,8.279-29.984,0l23.845,23.845c8.279,8.279,21.704,8.279,29.984,0
	C475.763,209.289,475.763,195.864,467.483,187.585z"/>
<polygon style="fill:#E6CE95;" points="146.512,460.867 75.086,474.155 95.522,494.59 150.554,504.51 163.671,468.641 "/>
<polygon style="fill:#FFCC4A;" points="55.178,409.133 98.822,413.178 102.867,456.823 146.512,460.867 150.556,504.512 
	370.219,284.849 313.677,198.324 227.151,141.781 7.489,361.444 51.133,365.488 "/>
<path style="fill:#3A484A;" d="M198.297,288.467l-8.397,8.397c-6.968,6.968-6.968,18.267,0,25.236l0,0
	c6.968,6.968,18.267,6.968,25.236,0l8.397-8.397L198.297,288.467z"/>
<polygon style="fill:#EAAE28;" points="146.512,460.867 150.556,504.512 370.219,284.849 351.372,256.008 "/>
<path style="fill:#EFEDEE;" d="M370.219,284.849L227.151,141.781c-8.279-8.279-8.279-21.703,0-29.984
	c8.279-8.279,21.703-8.279,29.984,0l143.068,143.068c8.279,8.279,8.279,21.703,0,29.984
	C391.923,293.129,378.498,293.129,370.219,284.849z"/>
<path style="fill:#D4D2D3;" d="M400.203,254.865l-23.845-23.845c8.279,8.279,8.279,21.704,0,29.984s-21.703,8.279-29.984,0
	l23.845,23.845c8.279,8.279,21.704,8.279,29.984,0C408.482,276.57,408.482,263.146,400.203,254.865z"/>
<path d="M165.587,252.833l-7.738,7.738c-2.929,2.929-2.929,7.678,0,10.607c2.826,2.825,7.675,2.933,10.607,0l7.738-7.738
	c2.929-2.929,2.929-7.678,0-10.607C173.264,249.904,168.515,249.904,165.587,252.833z"/>
<path d="M251.343,354.068l7.738-7.738c2.929-2.93,2.928-7.678,0-10.608c-2.93-2.929-7.677-2.928-10.608,0l-7.737,7.738
	c-2.929,2.929-2.929,7.678,0,10.607C243.562,356.893,248.411,356.998,251.343,354.068z"/>
<path d="M202.531,334.632c6.519,0,13.039-2.443,17.921-7.324c0,0,8.385-8.385,8.397-8.397c2.893-2.893,2.888-7.719,0-10.608
	l-25.236-25.235c-2.892-2.893-7.718-2.889-10.607,0c0,0-8.392,8.392-8.396,8.396c-9.773,9.773-9.768,26.076,0,35.843
	C189.494,332.191,196.012,334.632,202.531,334.632z M195.215,302.071l3.093-3.093l14.629,14.629c0,0-3.09,3.09-3.093,3.093
	c-3.99,3.99-10.64,3.989-14.629,0C191.232,312.715,191.242,306.044,195.215,302.071z"/>
<path d="M417.362,15.304c-20.293-20.293-54.156-20.273-74.428,0l-19.211,19.21c-4.301-2.477-9.191-3.805-14.289-3.805
	c-15.636,0-28.702,13.083-28.702,28.701c0,5.098,1.327,9.989,3.805,14.291l-28.093,28.094c-4.301-2.478-9.192-3.805-14.29-3.805
	c-15.65,0-28.702,13.078-28.702,28.701c0,5.097,1.327,9.989,3.805,14.29L76.844,281.395c-2.929,2.929-2.929,7.677,0,10.607
	c2.929,2.929,7.678,2.929,10.607,0l139.711-139.71l132.462,132.462L156.561,487.814l-0.007-0.075c0,0-2.56-27.631-2.563-27.661
	c-0.33-3.561-3.223-6.446-6.776-6.776l-37.443-3.47l-3.47-37.443c-0.333-3.595-3.181-6.442-6.776-6.775l-37.443-3.47
	c0,0-3.468-37.42-3.47-37.443c-0.318-3.43-3.175-6.443-6.776-6.776l-27.736-2.57l42.137-42.137c2.929-2.929,2.929-7.677,0-10.607
	c-2.929-2.929-7.678-2.929-10.607,0c0,0-53.406,53.406-53.435,53.435c-1.743,1.743-2.512,4.232-2.075,6.637l21.845,121.217
	c0.556,3.083,2.969,5.496,6.051,6.051c0,0,121.208,21.843,121.217,21.845c2.364,0.426,4.934-0.373,6.636-2.075l215.062-215.061
	c4.301,2.478,9.191,3.805,14.29,3.805c15.658,0,28.702-13.057,28.702-28.701c0-5.098-1.327-9.989-3.805-14.291l28.094-28.094
	c4.301,2.477,9.191,3.805,14.289,3.805c15.647,0,28.702-13.082,28.702-28.701c0-5.097-1.327-9.989-3.805-14.29l19.211-19.21
	c20.52-20.52,20.52-53.908,0-74.428C496.61,94.551,417.397,15.339,417.362,15.304z M102.186,464.194l37.443,3.47l2.559,27.617
	l-43.013-7.753l-74.789-74.789l-7.753-43.013l27.617,2.559c0,0,3.469,37.441,3.47,37.444c0.214,2.314,1.551,4.462,3.524,5.687
	c0.98,0.609,2.104,0.984,3.252,1.089l37.443,3.47l3.47,37.443C95.743,461.013,98.591,463.861,102.186,464.194z M35.805,476.111
	l-6.755-37.494l44.249,44.249L35.805,476.111z M267.753,111.701l26.69-26.69l132.462,132.461l-26.69,26.69L267.753,111.701z
	 M394.91,279.449c-5.296,5.296-14.09,5.285-19.376,0c0,0-142.691-142.692-143.067-143.068c-8.443-8.443-2.24-23.389,9.687-23.389
	c3.659,0,7.1,1.425,9.689,4.013L394.91,260.073C400.253,265.414,400.253,274.106,394.91,279.449z M486.004,158.373l-18.509,18.509
	l-20.879-20.879c-2.929-2.929-7.678-2.929-10.607,0c-2.887,2.887-2.883,7.725,0,10.608l26.182,26.182
	c2.587,2.588,4.012,6.027,4.013,9.686c0.001,7.467-6.251,13.702-13.702,13.702c-3.659,0-7.1-1.425-9.688-4.013L299.746,69.1
	c-2.587-2.588-4.013-6.028-4.013-9.687c0-7.479,6.229-13.702,13.702-13.702c3.659,0,7.099,1.425,9.688,4.013l95.672,95.672
	c2.929,2.929,7.678,2.929,10.607,0c2.929-2.929,2.929-7.678,0-10.607l-90.369-90.369c0,0,18.497-18.497,18.509-18.509
	c14.509-14.509,38.721-14.494,53.214,0l79.248,79.247C500.675,119.83,500.675,143.702,486.004,158.373z"/>
<g>
</g>
<g>
</g>
<g>
</g>
<g>
</g>
<g>
</g>
<g>
</g>
<g>
</g>
<g>
</g>
<g>
</g>
<g>
</g>
<g>
</g>
<g>
</g>
<g>
</g>
<g>
</g>
<g>
</g>
</svg>
