<svg id="Layer_3" enable-background="new 0 0 64 64" height="512" viewBox="0 0 64 64" width="512" xmlns="http://www.w3.org/2000/svg"><path d="m62 20-18-18-16.97 16.5c.12.31.24.62.36.93l4.61 12.57-13.29-5.31c-.03-.01-.05-.02-.08-.03l-4.52 4.4-3.04 2.95-3.07 2.99 25 25 3.02-2.91 3.05-2.95 22.93-22.14-7-7z" fill="#e6e9ed"/><path d="m62 20v14l-7-7z" fill="#fcd770"/><path d="m2.43 2c10.82 0 20.52 6.55 24.6 16.5.12.31.24.62.36.93l4.61 12.57-13.29-5.31c-.03-.01-.05-.02-.08-.03-10.05-4.06-16.63-13.82-16.63-24.66z" fill="#a0d468"/><path d="m31 52.172h2v5.657h-2z" transform="matrix(.707 -.707 .707 .707 -29.518 38.737)"/><path d="m44.01.596-16.656 16.193c-4.522-9.534-14.239-15.789-24.923-15.789h-1.431v1c0 10.811 6.188 20.436 15.885 24.967l-10.309 10.023 26.411 26.412 30.013-28.977v-14.839zm12.404 26.404 4.586-4.586v9.172zm-53.394-23.993c10.453.242 19.822 6.92 23.435 16.771l3.046 8.307-6.5-6.5v-6.585h-2v4.586l-2-2v-7.586h-2v5.586l-2-2v-5.586h-2v3.586l-6.294-6.293-1.414 1.414 6.293 6.293h-2.586v2h4.586l2 2h-4.586v2h6.586l2 2h-4.586v2h6.586l6.262 6.262-8.764-3.506c-9.457-3.782-15.676-12.642-16.064-22.749zm6.404 34.003 9.447-9.184 12.568 5.027 4.854 4.854 1.414-1.414-4.844-4.844-4.532-12.359c-.041-.112-.093-.218-.136-.33l15.795-15.356 16.596 16.596-7 7 6.987 6.987-27.56 26.61z"/><path d="m19.5 32.893h2v21.213h-2z" transform="matrix(.707 -.707 .707 .707 -24.755 27.237)"/><path d="m30 39.515h2v16.971h-2z" transform="matrix(.707 -.707 .707 .707 -24.861 35.979)"/><path d="m18.5 31.55h2v9.899h-2z" transform="matrix(.707 -.707 .707 .707 -20.098 24.479)"/><path d="m28.5 25.651h2v29.698h-2z" transform="matrix(.707 -.707 .707 .707 -19.998 32.722)"/><path d="m49 4.101h2v19.799h-2z" transform="matrix(.707 -.707 .707 .707 4.745 39.456)"/><path d="m46 7.101h2v19.799h-2z" transform="matrix(.707 -.707 .707 .707 1.745 38.213)"/><path d="m43 10.101h2v19.799h-2z" transform="matrix(.707 -.707 .707 .707 -1.255 36.971)"/></svg>