<svg height="512" viewBox="0 0 512 512" width="512" xmlns="http://www.w3.org/2000/svg"><g id="Fill_out_line" data-name="Fill out line"><path d="m184 104h256v336h-256z" fill="#92d4ef"/><path d="m440 104h64v336h-64z" fill="#37a6cb"/><path d="m504 440h-64l24-30h16z" fill="#2d80bb"/><path d="m24 328h256v160h-256z" fill="#aacb2a"/><path d="m64 368h40v32h-40z" fill="#f6c633"/><path d="m192 432 16 24h48l-16-24z" fill="#ccdce8"/><path d="m504 96h-64v-16a63.95126 63.95126 0 0 0 -96-55.38989 63.95126 63.95126 0 0 0 -96 55.38989v16h-64a8.00008 8.00008 0 0 0 -8 8v200h16v-192h56v40h16v-40h96v40h16v-40h56v320h-128v16h200a8.00008 8.00008 0 0 0 8-8v-336a8.00008 8.00008 0 0 0 -8-8zm-8 321.1936-16-20v-237.1936h-16v237.1936l-16 20v-305.1936h48zm-24-4.38745 15.355 19.19385h-30.71zm-208-332.80615a47.97581 47.97581 0 0 1 66.03809-44.47 63.76785 63.76785 0 0 0 -18.03809 44.47v16h-48zm64 16v-16a47.88563 47.88563 0 0 1 16-35.73877 47.88563 47.88563 0 0 1 16 35.73877v16zm29.96191-60.47a47.97581 47.97581 0 0 1 66.03809 44.47v16h-48v-16a63.76785 63.76785 0 0 0 -18.03809-44.47z"/><path d="m280 320h-256a8.00008 8.00008 0 0 0 -8 8v160a8.00008 8.00008 0 0 0 8 8h256a8.00008 8.00008 0 0 0 8-8v-160a8.00008 8.00008 0 0 0 -8-8zm-8 160h-240v-144h240z"/><path d="m64 408h40a8.00008 8.00008 0 0 0 8-8v-32a8.00008 8.00008 0 0 0 -8-8h-40a8.00008 8.00008 0 0 0 -8 8v32a8.00008 8.00008 0 0 0 8 8zm8-32h24v16h-24z"/><path d="m48 424h32v16h-32z"/><path d="m96 424h32v16h-32z"/><path d="m144 424h32v16h-32z"/><path d="m48 448h48v16h-48z"/><path d="m112 448h48v16h-48z"/><path d="m184.94629 428.2251a8.00082 8.00082 0 0 0 .39746 8.2124l16 24a7.99943 7.99943 0 0 0 6.65625 3.5625h48a7.99956 7.99956 0 0 0 6.65625-12.4375l-16-24a7.99943 7.99943 0 0 0 -6.65625-3.5625h-48a8.00149 8.00149 0 0 0 -7.05371 4.2251zm50.77246 11.7749 5.333 8h-28.7705l-5.333-8z"/><path d="m176 352h48v16h-48z"/><circle cx="248" cy="360" r="8"/></g></svg>