<svg id="Capa_1" enable-background="new 0 0 512 512" height="512" viewBox="0 0 512 512" width="512" xmlns="http://www.w3.org/2000/svg"><g><g><path d="m97.556 148.908c-18.495-57.866-34.628-88.868-34.789-89.174-3.774-7.192-1.011-16.087 6.178-19.867 7.188-3.781 16.078-1.026 19.864 6.158.574 1.089 11.847 22.666 26.531 63.642 3.274 9.134-15.786 45.493-17.784 39.241z" fill="#f9f6f6"/><g><circle cx="251.532" cy="446.833" fill="#da4a54" r="36.068"/><path d="m251.532 410.765-5.89 27.449c-1.948 9.077 6.78 16.777 15.549 13.729 16.06-5.582 37.077-17.309 42.789-41.178" fill="#f9f6f6"/></g><g><circle cx="411.145" cy="446.833" fill="#da4a54" r="36.068"/><path d="m411.145 410.765-5.89 27.449c-1.948 9.077 6.78 16.777 15.549 13.729 16.06-5.582 37.077-17.309 42.789-41.178" fill="#f9f6f6"/></g><path d="m481.804 396.047c0 8.126-6.585 14.721-14.711 14.721h-251.632c-17.363 0-32.083-11.278-36.636-28.07-2.202-8.106-1.691-16.302 1.121-23.597 2.982-7.736 8.556-14.461 16.242-18.954 7.425-4.353 15.071-8.146 22.826-11.438 72.823-30.982 155.322-18.573 159.155-17.973 3.553.56 6.605 2.352 8.796 4.863 2.762 3.162 4.153 7.486 3.453 11.959-1.261 8.026-8.786 13.52-16.812 12.259-1.351-.2-82.009-12.099-147.827 18.083-5.004 2.302-9.927 4.833-14.721 7.646-4.984 2.912-4.343 7.586-3.833 9.457.51 1.901 2.352 6.335 8.236 6.335h251.632c8.126-.002 14.711 6.583 14.711 14.709z" fill="#f9f6f6"/><path d="m481.809 396.043c0 8.126-6.585 14.721-14.711 14.721h-251.631c-17.363 0-32.093-11.278-36.636-28.07-4.543-16.712 2.442-33.814 17.363-42.551.941-.55 1.881-1.091 2.822-1.621-4.143 8.106-5.264 17.683-2.702 27.13 4.553 16.782 19.284 28.06 36.646 28.06h248.66c.129.76.189 1.54.189 2.331z" fill="#efe7e4"/><path d="m195.674 342.223c-5.094 0-9.825-2.634-12.508-6.964-53.265-85.957-83.162-174.472-96.243-219.585-1.3-4.486-.394-9.324 2.443-13.035s7.281-5.856 11.938-5.776c195.366 3.296 390.028 50.307 391.971 50.782 6.589 1.608 11.225 7.512 11.225 14.294 0 68.42-23.412 144.798-24.408 148.016-1.588 5.129-5.844 8.985-11.104 10.063-107.199 21.951-271.665 22.205-273.314 22.205zm-74.631-215.436c14.323 45.32 40.704 116.134 82.845 185.949 33.229-.35 160.07-2.798 250.503-19.84 5.474-19.712 18.516-71.08 20.441-119.311-42.368-9.53-195.685-41.725-353.789-46.798z" fill="#f9f6f6"/><g><path d="m202.728 335.26c-53.265-85.957-83.162-174.472-96.243-219.585-1.3-4.486-.394-9.324 2.443-13.035 2.111-2.761 5.112-4.65 8.427-5.406-5.347-.154-10.699-.279-16.051-.369-4.657-.08-9.101 2.064-11.938 5.776-2.837 3.711-3.743 8.549-2.443 13.035 13.081 45.113 42.978 133.628 96.243 219.585 2.683 4.33 7.414 6.964 12.508 6.964.316 0 6.608-.01 17.319-.179-4.211-.651-7.981-3.101-10.265-6.786z" fill="#efe7e4"/></g><path d="m82.172 76.675h-50.882c-13.139 0-23.79-10.651-23.79-23.79 0-13.139 10.651-23.79 23.79-23.79h50.882c13.139 0 23.79 10.651 23.79 23.79-.001 13.139-10.652 23.79-23.79 23.79z" fill="#da4a54"/></g><g><path d="m203.89 320.24h.079c36.237-.382 161.489-2.95 251.81-19.97 2.809-.529 5.072-2.608 5.837-5.362 5.577-20.067 18.758-72.031 20.708-121.02.144-3.617-2.316-6.821-5.848-7.616-43.292-9.737-196.849-41.901-355.196-46.979-2.444-.072-4.75 1.028-6.219 2.967s-1.906 4.47-1.172 6.79c2.314 7.321 4.78 14.79 7.329 22.199 1.348 3.918 5.617 6 9.532 4.653 3.917-1.348 6-5.615 4.653-9.532-1.34-3.895-2.656-7.805-3.938-11.701 24.856.987 49.534 2.624 73.62 4.712l9.45 43.459c-22.096-.925-44.403-1.657-66.554-2.177-.877-2.26-1.754-4.52-2.618-6.795-1.47-3.872-5.8-5.819-9.673-4.351-3.873 1.47-5.821 5.801-4.351 9.673 18.893 49.784 41.143 96.02 66.131 137.425 1.358 2.252 3.794 3.625 6.42 3.625zm-14.258-47.988c11.155-.935 25.85-2.044 43.663-3.125l7.69 35.366c-13.481.387-24.736.59-32.877.697-6.347-10.661-12.505-21.654-18.476-32.938zm129.179-68.33c24.184 1.87 46.587 3.979 66.804 6.289l-2.18 39.658c-19.909-.066-40.092.122-60.224.563zm-5.856 97.345c-20.502 1.269-39.832 2.14-56.726 2.738l-7.773-35.749c19.885-1.078 40.386-1.912 61.14-2.491zm11.673-35.861c19.384-.416 38.805-.596 57.983-.539l-1.695 30.836c-17.773 1.864-35.673 3.367-52.988 4.577zm75.912-53.406c23.541 2.959 44.239 6.258 61.723 9.839-1.651 10.386-3.542 20.331-5.459 29.424-19.117-.684-38.681-1.125-58.35-1.312zm-14.1-16.792c-20.892-2.373-44.056-4.534-69.063-6.441l-3.479-36.773c27.12 3.888 52.168 8.006 74.261 11.943zm-78.261 55.589c-21.389.606-42.498 1.484-62.951 2.616l-11.901-54.733c24.582 1.162 48.154 2.545 70.31 4.12zm87.852 43.226 1.598-29.079c18.812.173 37.535.576 55.854 1.207-1.869 7.954-3.636 14.836-5.086 20.227-16.597 2.999-34.309 5.521-52.366 7.645zm68.375-87.058c-17.939-3.643-39.082-6.989-63.041-9.979l1.668-30.346c27.712 5.132 49.758 9.764 63.993 12.898-.541 9.16-1.458 18.384-2.62 27.427zm-165.777-57.103 3.576 37.797c-22.747-1.595-46.963-2.984-72.175-4.147l-9.285-42.703c27.051 2.585 53.214 5.698 77.884 9.053zm-80.801 48.129 12.243 56.306c-20.358 1.257-36.539 2.541-47.887 3.541-9.994-19.849-19.396-40.563-28.163-62.019 21.27.536 42.646 1.263 63.807 2.172z"/><path d="m467.1 373.83h-15.02c-4.142 0-7.5 3.358-7.5 7.5s3.358 7.5 7.5 7.5h15.02c3.976 0 7.21 3.239 7.21 7.22 0 3.976-3.234 7.21-7.21 7.21h-251.63c-13.939 0-25.759-9.051-29.412-22.522-3.137-11.57.591-23.47 9.521-31.017.032 0 .063.003.094.003.434 0 12.103-.018 31.025-.441-6.821 2.938-13.308 6.195-19.434 9.783-6.458 3.774-9.245 10.632-7.279 17.881 1.543 5.746 6.421 11.885 15.483 11.885h206.77c4.142 0 7.5-3.358 7.5-7.5s-3.358-7.5-7.5-7.5h-206.768c-.477 0-.654-.077-.656-.072-.083-.074-.25-.365-.345-.721-.096-.352-.092-.657-.104-.671.028-.038.167-.174.475-.354 23.178-13.575 52.096-22.181 85.949-25.579.005 0 .009-.002.014-.002 53.605-2.943 118.173-8.515 169.689-19.063 7.942-1.626 14.366-7.447 16.765-15.192 1.01-3.267 24.743-80.733 24.743-150.238 0-10.271-6.968-19.145-16.945-21.58-1.903-.465-187.86-45.388-379.137-50.671-2.601-6.768-5.202-13.255-7.772-19.379 3.354-4.984 5.315-10.979 5.315-17.425 0-17.253-14.037-31.29-31.29-31.29h-50.881c-17.253.001-31.29 14.037-31.29 31.29s14.037 31.29 31.29 31.29h34.463c4.544 10.651 10.839 26.333 17.759 46.285 14.766 48.14 44.17 129.499 93.28 208.751 1.041 1.679 2.277 3.182 3.667 4.495-9.393 11.136-12.87 26.23-8.877 40.957 5.45 20.095 23.087 33.597 43.889 33.597h3.214c-6.667 7.656-10.718 17.648-10.718 28.574 0 24.025 19.541 43.57 43.561 43.57 24.025 0 43.57-19.545 43.57-43.57 0-1.971-.145-3.927-.406-5.858 7.781-7.424 12.304-15.434 14.881-22.716h68.726c-6.667 7.656-10.718 17.648-10.718 28.574 0 24.025 19.541 43.57 43.561 43.57 24.025 0 43.57-19.545 43.57-43.57 0-1.971-.145-3.927-.406-5.858 7.818-7.459 12.345-15.51 14.916-22.82 11.255-1.072 20.088-10.575 20.088-22.106 0-12.252-9.963-22.22-22.21-22.22zm-452.1-320.945c0-8.982 7.308-16.29 16.29-16.29h50.882c8.982 0 16.29 7.308 16.29 16.29s-7.308 16.29-16.29 16.29h-50.882c-8.982 0-16.29-7.308-16.29-16.29zm67.171 31.29c5.067 0 9.852-1.218 14.089-3.365 1.148 2.802 2.301 5.67 3.457 8.605-4.941.31-9.651 2.267-13.345 5.51-1.443-3.66-2.892-7.245-4.345-10.75zm11.956 29.411c-.635-2.19-.187-4.579 1.198-6.391 1.36-1.78 3.494-2.833 5.73-2.833.041 0 .082 0 .123.001 194.606 3.283 388.384 50.096 390.319 50.568 3.24.791 5.503 3.673 5.503 7.008 0 67.262-23.089 142.623-24.072 145.797-.779 2.515-2.865 4.405-5.444 4.934-106.462 21.8-270.168 22.052-271.809 22.052-2.515 0-4.808-1.276-6.133-3.414-52.794-85.194-82.441-172.978-95.415-217.722zm324.215 331.272c-2.202.767-3.789-.345-4.37-.858-.578-.511-1.871-1.945-1.384-4.213l4.62-21.527h35.668c-7.412 14.418-22.31 22.349-34.534 26.598zm-166.815 30.546c-15.749 0-28.561-12.816-28.561-28.57 0-12.373 7.904-22.93 18.925-26.893l-3.584 16.699c-1.49 6.944.796 13.897 6.116 18.599 3.635 3.212 8.138 4.892 12.766 4.892 2.152 0 4.331-.363 6.463-1.104 6.03-2.096 11.322-4.487 15.978-7.084-2.415 13.323-14.093 23.461-28.103 23.461zm7.201-30.546c-2.203.767-3.79-.345-4.37-.858-.578-.511-1.871-1.944-1.384-4.212l4.62-21.527h35.668c-7.412 14.417-22.31 22.348-34.534 26.597zm152.413 30.546c-15.749 0-28.561-12.816-28.561-28.57 0-12.373 7.904-22.93 18.925-26.893l-3.583 16.699c-1.49 6.944.796 13.897 6.116 18.599 3.634 3.212 8.137 4.892 12.766 4.892 2.152 0 4.331-.363 6.463-1.104 6.03-2.096 11.322-4.487 15.978-7.084-2.417 13.323-14.094 23.461-28.104 23.461z"/></g></g></svg>