<?xml version="1.0" encoding="iso-8859-1"?>
<!-- Generator: Adobe Illustrator 19.0.0, SVG Export Plug-In . SVG Version: 6.00 Build 0)  -->
<svg version="1.1" id="Capa_1" xmlns="http://www.w3.org/2000/svg" xmlns:xlink="http://www.w3.org/1999/xlink" x="0px" y="0px"
	 viewBox="0 0 512 512" style="enable-background:new 0 0 512 512;" xml:space="preserve">
<path style="fill:#FD3018;" d="M256,0C148.599,0,61,87.599,61,195c0,42.599,13.5,83.101,39.3,117.299L256,512l156-199.999
	c25.499-33.9,39-74.401,39-117.001C451,87.599,363.401,0,256,0z M256,330c-74.399,0-135-60.601-135-135S181.601,60,256,60
	s135,60.601,135,135S330.399,330,256,330z"/>
<rect x="241" y="120" style="fill:#896748;" width="30" height="30"/>
<rect x="301" y="150" style="fill:#FD3018;" width="30" height="30"/>
<g>
	<rect x="181" y="150" style="fill:#896748;" width="30" height="30"/>
	<path style="fill:#896748;" d="M256,180c-33.6,0-60,19.799-60,45s26.4,45,60,45s60-19.799,60-45S289.6,180,256,180z"/>
</g>
<g>
	<rect x="256" y="120" style="fill:#73553A;" width="15" height="30"/>
	<path style="fill:#73553A;" d="M256,270v-90c33.6,0,60,19.799,60,45S289.6,270,256,270z"/>
	<rect x="301" y="150" style="fill:#73553A;" width="30" height="30"/>
</g>
<path style="fill:#E61E14;" d="M451,195c0,42.599-13.5,83.101-39,117.001L256,512V330c74.399,0,135-60.601,135-135
	S330.399,60,256,60V0C363.401,0,451,87.599,451,195z"/>
<g>
</g>
<g>
</g>
<g>
</g>
<g>
</g>
<g>
</g>
<g>
</g>
<g>
</g>
<g>
</g>
<g>
</g>
<g>
</g>
<g>
</g>
<g>
</g>
<g>
</g>
<g>
</g>
<g>
</g>
</svg>
