<svg height="411pt" viewBox="-39 0 411 411.21935" width="411pt" xmlns="http://www.w3.org/2000/svg"><path d="m326.753906 160.378906c1.386719 22.058594-1.859375 44.164063-9.53125 64.890625-7.902344 21.671875-20.78125 41.179688-36.570312 58l-113.558594 120.949219-113.5625-120.949219c-15.789062-16.820312-28.667969-36.328125-36.570312-58-7.671876-20.726562-10.917969-42.832031-9.527344-64.890625 5.429687-81.339844 70.386718-153.378906 159.660156-153.378906 89.269531 0 154.226562 72.039062 159.660156 153.378906zm-50.742187-1.917968c0-61.769532-48.757813-111.851563-108.917969-111.851563s-108.921875 50.082031-108.921875 111.851563c0 61.769531 48.761719 111.839843 108.921875 111.839843s108.917969-50.070312 108.917969-111.839843zm0 0" fill="#e48e66"/><path d="m167.09375 46.609375c60.160156 0 108.917969 50.082031 108.917969 111.851563 0 61.769531-48.757813 111.839843-108.917969 111.839843s-108.921875-50.070312-108.921875-111.839843c0-61.769532 48.761719-111.851563 108.921875-111.851563zm0 0" fill="#f8ec7d"/><g fill="#63316d"><path d="m48.429688 288.0625 113.5625 120.949219c1.324218 1.40625 3.171874 2.207031 5.105468 2.207031s3.78125-.800781 5.101563-2.207031l113.558593-120.953125c17.386719-18.519532 30.1875-38.839844 38.042969-60.390625 8.03125-21.636719 11.417969-44.722657 9.941407-67.753907-2.765626-42.09375-20.675782-81.757812-50.421876-111.667968-30.792968-30.886719-72.613281-48.246094-116.226562-48.246094-43.617188 0-85.4375 17.359375-116.230469 48.246094-29.742187 29.910156-47.652343 69.574218-50.417969 111.664062-1.476562 23.03125 1.910157 46.117188 9.941407 67.757813 7.855469 21.550781 20.65625 41.871093 38.042969 60.394531zm-34.011719-127.214844c2.539062-38.71875 19.007812-75.203125 46.363281-102.71875 28.164062-28.25 66.417969-44.128906 106.3125-44.128906 39.890625 0 78.144531 15.878906 106.308594 44.128906 27.359375 27.515625 43.828125 64.003906 46.367187 102.71875 1.34375 21.085938-1.765625 42.21875-9.125 62.023438-7.199219 19.765625-19.011719 38.476562-35.097656 55.609375l-108.453125 115.511719-108.457031-115.511719c-16.085938-17.132813-27.894531-35.84375-35.101563-55.609375-7.355468-19.808594-10.464844-40.941406-9.117187-62.023438zm0 0"/><path d="m167.09375 277.300781c63.917969 0 115.917969-53.3125 115.917969-118.839843 0-65.527344-52-118.851563-115.917969-118.851563s-115.921875 53.316406-115.921875 118.851563c0 65.53125 52.003906 118.839843 115.921875 118.839843zm0-223.691406c56.199219 0 101.917969 47.035156 101.917969 104.851563 0 57.8125-45.71875 104.839843-101.917969 104.839843-56.203125 0-101.921875-47.03125-101.921875-104.839843 0-57.808594 45.71875-104.851563 101.921875-104.851563zm0 0"/><path d="m148.332031 193.878906c2.691407 2.691406 7.035157 2.742188 9.785157.113282l63.808593-60.949219c2.796875-2.671875 2.898438-7.101563.226563-9.898438-2.667969-2.796875-7.097656-2.898437-9.894532-.226562l-58.867187 56.226562-31.347656-31.355469c-2.734375-2.734374-7.167969-2.734374-9.902344 0-2.734375 2.734376-2.734375 7.167969 0 9.902344zm0 0"/></g></svg>