<svg id="Capa_1" enable-background="new 0 0 512 512" height="512" viewBox="0 0 512 512" width="512" xmlns="http://www.w3.org/2000/svg"><g><g><path d="m256 7.5c-129.065 0-233.53 104.773-233.53 233.53 0 50.637 6.546 99.842 34.991 140.113 5.077 7.188 13.294 11.509 22.094 11.509l352.891-.001c8.801 0 17.017-4.321 22.094-11.509 28.445-40.27 34.99-89.476 34.99-140.112 0-129.079-104.767-233.53-233.53-233.53z" fill="#ff8f71"/><path d="m183.672 229.054c0-96.553 61.77-178.665 147.942-209.014-23.726-8.124-49.162-12.54-75.614-12.54-129.065 0-233.53 104.773-233.53 233.53 0 50.637 6.546 99.843 34.991 140.113 5.077 7.188 13.294 11.509 22.094 11.509h176.273c-44.338-40.513-72.156-98.805-72.156-163.598z" fill="#ff6f4d"/></g><g><g><path d="m328.378 431.807c-13.352-16.767-32.298-28.817-53.954-33.236-5.957-1.215-12.118-1.853-18.425-1.853-29.236 0-55.353 13.711-72.378 35.089-12.777 16.044-20.435 36.404-20.435 58.538v14.155h92.814 92.813v-14.156c0-7.231-.817-14.272-2.363-21.036-3.187-13.94-9.469-26.699-18.072-37.501z" fill="#c9aaf2"/><path d="m274.424 398.57c-5.957-1.216-12.118-1.853-18.425-1.853-29.236 0-55.353 13.711-72.378 35.089-8.603 10.803-14.885 23.562-18.071 37.502-1.546 6.764-2.363 13.805-2.363 21.036v14.156h36.879v-14.156c0-45.191 32.006-83.12 74.358-91.774z" fill="#b28ae4"/></g><g><path d="m348.813 490.344v14.156h-36.879v-14.156c0-3.417-.183-6.791-.54-10.116 12.051-2.778 23.755-6.44 35.056-10.92 1.547 6.766 2.363 13.803 2.363 21.036z" fill="#fed2a4"/><path d="m163.187 490.344v14.156h36.879v-14.156c0-3.417.183-6.791.54-10.116-12.051-2.778-23.755-6.44-35.056-10.92-1.547 6.766-2.363 13.803-2.363 21.036z" fill="#ffbd86"/></g></g><g><path d="m429.651 199.114h-347.302c-23.149 0-41.916 18.766-41.916 41.916s18.766 41.916 41.916 41.916h347.301c23.149 0 41.916-18.766 41.916-41.916s-18.766-41.916-41.915-41.916z" fill="#ffbd86"/><path d="m284.919 69.79c-9.406-1.577-19.065-2.411-28.919-2.411s-19.512.834-28.918 2.411c-82.138 13.771-144.733 85.19-144.733 171.24s62.595 157.47 144.733 171.24c9.406 1.577 19.064 2.411 28.918 2.411s19.513-.834 28.919-2.411c82.138-13.771 144.732-85.19 144.732-171.24s-62.594-157.469-144.732-171.24z" fill="#fed2a4"/><path d="m139.952 241.272c0-86.203 62.707-157.75 144.967-171.481-9.406-1.577-19.065-2.411-28.919-2.411s-19.512.834-28.918 2.411c-82.138 13.77-144.733 85.189-144.733 171.239s62.595 157.47 144.733 171.24c9.406 1.577 19.064 2.411 28.918 2.411s19.513-.834 28.919-2.411c-82.259-13.731-144.967-84.798-144.967-170.998z" fill="#ffbd86"/></g><g><path d="m402.314 131.729c-34.073-45.627-88.035-73.331-146.314-73.331-59.056 0-112.728 28.348-146.32 73.34-14.515 19.44-22.238 43.116-22.238 67.377 19.846-4.438 39.834-8.07 59.897-10.918 5.92-.84 11.022-4.596 13.614-9.984l9.236-19.2 7.178 14.151c3.294 6.493 10.18 10.346 17.438 9.771 11.031-.874 22.076-1.509 33.128-1.909 6.86-.248 12.974-4.389 15.755-10.665l10.334-23.324 10.285 23.19c2.796 6.304 8.954 10.447 15.847 10.662 16.511.515 33.009 1.557 49.469 3.132 6.435.616 12.699-2.289 16.401-7.587l3.805-5.445 6.043 9.555c2.791 4.413 7.354 7.426 12.519 8.185 18.809 2.765 37.55 6.223 56.166 10.386 0-24.262-7.727-47.946-22.243-67.386z" fill="#ff8f71"/><path d="m263.721 58.58c-2.565-.108-5.137-.182-7.721-.182-59.056 0-112.728 28.348-146.32 73.339-14.515 19.44-22.238 43.116-22.238 67.377 19.846-4.438 39.834-8.071 59.897-10.918 5.92-.84 11.022-4.596 13.615-9.984l9.236-19.2 7.178 14.151c2.331 4.596 6.466 7.859 11.254 9.175 10.597-49.362 37.627-92.62 75.099-123.758z" fill="#ff6f4d"/></g><g fill="#ff8e9e"><ellipse cx="160.646" cy="297.886" rx="35.184" ry="28.019"/><ellipse cx="351.354" cy="297.886" rx="35.184" ry="28.019"/></g><g><path d="m181.151 278.414c4.142 0 7.5-3.358 7.5-7.5v-14.383c0-4.142-3.358-7.5-7.5-7.5s-7.5 3.358-7.5 7.5v14.383c0 4.142 3.358 7.5 7.5 7.5z"/><path d="m330.849 278.414c4.143 0 7.5-3.358 7.5-7.5v-14.383c0-4.142-3.357-7.5-7.5-7.5-4.142 0-7.5 3.358-7.5 7.5v14.383c0 4.142 3.358 7.5 7.5 7.5z"/><path d="m256 286.976c9.73 0 18.983-4.214 25.387-11.562 2.722-3.123 2.396-7.86-.726-10.582s-7.86-2.397-10.582.726c-3.555 4.079-8.687 6.417-14.08 6.417-5.394 0-10.525-2.339-14.079-6.417-2.722-3.122-7.459-3.447-10.582-.727-3.123 2.722-3.448 7.459-.727 10.582 6.405 7.349 15.659 11.563 25.389 11.563z"/><path d="m256 0c-132.904 0-241.03 108.125-241.03 241.03 0 28.982 2.102 52.419 6.616 73.756 5.805 27.441 15.536 50.562 29.749 70.684 6.494 9.193 17.043 14.682 28.22 14.682h89.885c7.813 4.258 15.927 7.938 24.267 10.993-1.732 1.387-3.425 2.825-5.063 4.324-3.056 2.796-3.266 7.54-.469 10.596 2.796 3.056 7.541 3.266 10.596.469 4.024-3.682 8.399-6.973 13.031-9.82 14.646 3.678 29.566 5.466 44.198 5.466 14.892 0 29.627-1.808 44.19-5.464 17.815 10.941 31.083 28.071 37.256 47.979-6.519 2.372-13.162 4.468-19.872 6.26-1.573-8.115-4.129-15.997-7.644-23.522-1.753-3.753-6.217-5.374-9.969-3.622-3.753 1.753-5.375 6.216-3.622 9.969 4.025 8.617 6.581 17.785 7.597 27.247.597 5.57.497 9.032.497 15.971h-96.868c0-6.905-.101-10.4.497-15.971 1.017-9.462 3.572-18.629 7.597-27.247 1.753-3.753.131-8.216-3.622-9.969-3.753-1.751-8.215-.13-9.969 3.622-3.514 7.525-6.071 15.407-7.644 23.522-6.703-1.791-13.339-3.884-19.851-6.253 1.784-5.767 4.159-11.348 7.118-16.627 2.025-3.613.738-8.184-2.875-10.209-3.612-2.023-8.184-.737-10.209 2.875-8.453 15.082-12.921 32.234-12.921 49.602v14.157c0 4.142 3.358 7.5 7.5 7.5h185.627c4.143 0 7.5-3.358 7.5-7.5v-14.156c0-7.659-.858-15.299-2.552-22.708-5.118-22.387-17.748-42.301-35.467-56.492 8.34-3.055 16.452-6.735 24.265-10.993h39.108c4.143 0 7.5-3.358 7.5-7.5s-3.357-7.5-7.5-7.5h-15.976c31.058-23.697 53.935-57.018 64.615-94.723 26.945-.355 48.758-22.372 48.758-49.399 0-27.248-22.168-49.416-49.416-49.416h-4.282c-18.362-4.084-37.158-7.553-55.886-10.306-2.979-.438-5.63-2.178-7.271-4.773l-6.043-9.555c-2.857-4.519-9.415-4.682-12.487-.287l-3.804 5.444c-2.154 3.083-5.801 4.773-9.54 4.418-16.513-1.58-33.318-2.644-49.95-3.163-3.987-.125-7.608-2.561-9.225-6.207l-10.285-23.19c-2.627-5.924-11.079-5.944-13.713.002l-10.333 23.324c-1.607 3.628-5.207 6.065-9.168 6.208-11.146.403-22.4 1.051-33.45 1.927-4.253.334-8.233-1.896-10.156-5.687l-7.178-14.15c-2.818-5.557-10.768-5.427-13.447.141l-9.236 19.2c-1.515 3.15-4.472 5.322-7.909 5.81-20.023 2.841-40.083 6.491-59.645 10.843h-4.29c-27.248 0-49.416 22.168-49.416 49.416 0 27.027 21.813 49.044 48.758 49.399 10.681 37.705 33.558 71.026 64.617 94.723h-66.754c-6.312 0-12.281-3.116-15.968-8.336-13.011-18.419-21.948-39.721-27.323-65.12-.001-.004-.001-.009-.002-.014-4.292-20.29-6.292-42.74-6.292-70.652 0-124.631 101.397-226.028 226.03-226.028 124.634 0 226.03 101.397 226.03 226.03 0 41.062-3.821 93.604-33.616 135.786-3.687 5.219-9.655 8.335-15.968 8.335h-20.777c-4.143 0-7.5 3.358-7.5 7.5s3.357 7.5 7.5 7.5h20.777c11.177 0 21.727-5.489 28.22-14.682 32.231-45.629 36.364-101.16 36.364-144.439 0-132.905-108.126-241.03-241.03-241.03zm-84.628 479.495c6.989 2.478 14.105 4.66 21.286 6.511-.116 2.733-.092 3.884-.092 10.993h-21.879c0-6.873-.137-10.991.685-17.504zm169.941 17.505h-21.879c0-7.108.024-8.261-.092-10.993 7.181-1.852 14.298-4.034 21.288-6.512.449 3.59.683 7.216.683 10.85zm122.753-255.97c0 17.532-13.182 32.035-30.154 34.142 4.15-21.745 4.479-44.817.001-68.285 16.971 2.108 30.153 16.611 30.153 34.143zm-416.132 0c0-17.533 13.182-32.035 30.153-34.143-4.312 22.593-4.319 45.651 0 68.285-16.972-2.107-30.153-16.609-30.153-34.142zm46.797 40.111c-6.132-24.73-6.492-50.792-1.049-75.721 17.987-3.902 36.37-7.195 54.712-9.797 15.031-2.134 19.457-14.445 21.975-19.68 5.301 10.451 15.149 15.253 25.03 14.468 10.836-.859 21.874-1.495 32.806-1.89 9.656-.349 18.425-6.285 22.34-15.122l3.48-7.854 3.425 7.723c3.938 8.881 12.758 14.815 22.469 15.118 16.311.509 32.793 1.552 48.988 3.102 7.606.732 15.068-2.025 20.38-7.322 4.399 6.966 10.893 10.938 18.013 11.984 17.088 2.512 34.226 5.626 51.018 9.272 5.436 24.899 5.09 50.953-1.049 75.72-17.946 72.391-83.477 126.04-161.27 126.04-77.248-.001-143.19-53.115-161.268-126.041z"/></g></g></svg>